<svg width="310" height="24" viewBox="0 0 310 24" xmlns="http://www.w3.org/2000/svg">
    <g transform="translate(0)">
        
<rect width="24" height="24" rx="12" fill="#121214"/>
<rect x="10" width="66" height="24" rx="2" fill="#121214"/>

        <g transform="translate(3, 3)">
<path fill="rgba(255, 255, 255, 0.98)" fillOpacity="undefined" d="m11.6 6.95-.09-.12c4.28-3.46 3.8-3.97 3.8-3.97A8.85 8.85 0 0 0 11.8.52a8.79 8.79 0 0 0-9.43 2.34 9.2 9.2 0 0 0-.03 12.26 8.77 8.77 0 0 0 12.48.51l.06-.05.06-.06.02-.03a.76.76 0 0 0 .14-.17c1.01-1.31-.5-4.89-3.5-8.37Zm2.74 7.71c-.23.23-1.18.26-2.72-.57A19.3 19.3 0 0 1 7.1 10.4c-.25.2 3.94-3.17 3.75-3a19.19 19.19 0 0 1 3.02 4.63c.7 1.63.67 2.43.48 2.63Z"/>
</g>
        <path d="M33.14 18.56L23.84 18.56L23.84 16.68Q25.88 15.24 27.25 14.08Q28.62 12.92 29.45 11.93Q30.28 10.94 30.63 10.09Q30.98 9.24 30.98 8.40L30.98 8.40Q30.98 7.80 30.77 7.30Q30.56 6.80 30.18 6.45Q29.80 6.10 29.26 5.90Q28.72 5.70 28.08 5.70L28.08 5.70Q27.06 5.70 26.01 6.15Q24.96 6.60 24.16 7.50L24.16 7.50L24.16 5.36Q24.98 4.70 26.07 4.36Q27.16 4.02 28.24 4.02L28.24 4.02Q29.36 4.02 30.23 4.36Q31.10 4.70 31.70 5.28Q32.30 5.86 32.61 6.66Q32.92 7.46 32.92 8.38L32.92 8.38Q32.92 9.36 32.54 10.33Q32.16 11.30 31.34 12.32Q30.52 13.34 29.24 14.45Q27.96 15.56 26.16 16.84L26.16 16.84L33.14 16.84L33.14 18.56ZM37.96 18.76L37.96 18.76Q36.88 18.76 35.90 18.49Q34.92 18.22 34.40 17.78L34.40 17.78L34.40 15.74Q35.16 16.44 36.09 16.78Q37.02 17.12 37.94 17.12L37.94 17.12Q39.72 17.12 40.68 16.19Q41.64 15.26 41.64 13.80L41.64 13.80Q41.64 13.08 41.40 12.54Q41.16 12.00 40.75 11.62Q40.34 11.24 39.80 11.05Q39.26 10.86 38.64 10.86L38.64 10.86Q37.78 10.86 37.14 11.15Q36.50 11.44 36.24 11.74L36.24 11.74L34.80 11.74L34.80 4.22L42.72 4.22L42.72 5.94L36.44 5.94L36.44 9.90Q36.90 9.56 37.55 9.37Q38.20 9.18 39.08 9.18L39.08 9.18Q40 9.18 40.81 9.48Q41.62 9.78 42.23 10.35Q42.84 10.92 43.19 11.78Q43.54 12.64 43.54 13.74L43.54 13.74Q43.54 14.88 43.15 15.81Q42.76 16.74 42.04 17.39Q41.32 18.04 40.29 18.40Q39.26 18.76 37.96 18.76ZM50.84 18.76L50.84 18.76Q49.64 18.76 48.57 18.28Q47.50 17.80 46.69 16.87Q45.88 15.94 45.41 14.56Q44.94 13.18 44.94 11.38L44.94 11.38Q44.94 9.54 45.41 8.16Q45.88 6.78 46.69 5.87Q47.50 4.96 48.57 4.50Q49.64 4.04 50.84 4.04L50.84 4.04Q52.04 4.04 53.10 4.49Q54.16 4.94 54.97 5.85Q55.78 6.76 56.25 8.13Q56.72 9.50 56.72 11.34L56.72 11.34Q56.72 13.14 56.25 14.52Q55.78 15.90 54.97 16.84Q54.16 17.78 53.10 18.27Q52.04 18.76 50.84 18.76ZM50.82 17.12L50.82 17.12Q51.62 17.12 52.35 16.77Q53.08 16.42 53.64 15.70Q54.20 14.98 54.52 13.91Q54.84 12.84 54.84 11.40L54.84 11.40Q54.84 9.92 54.52 8.84Q54.20 7.76 53.65 7.06Q53.10 6.36 52.37 6.02Q51.64 5.68 50.84 5.68L50.84 5.68Q50.04 5.68 49.31 6.02Q48.58 6.36 48.02 7.06Q47.46 7.76 47.13 8.84Q46.80 9.92 46.80 11.40L46.80 11.40Q46.80 12.84 47.13 13.91Q47.46 14.98 48.01 15.70Q48.56 16.42 49.29 16.77Q50.02 17.12 50.82 17.12ZM61.96 4.24L65.70 4.24Q66.82 4.24 67.76 4.50Q68.70 4.76 69.37 5.25Q70.04 5.74 70.42 6.48Q70.80 7.22 70.80 8.18L70.80 8.18Q70.80 9.18 70.39 9.91Q69.98 10.64 69.27 11.12Q68.56 11.60 67.60 11.84Q66.64 12.08 65.54 12.08L65.54 12.08L63.86 12.08L63.86 13.76L68.54 13.76L68.54 15.16L63.86 15.16L63.86 18.56L61.96 18.56L61.96 15.16L60.06 15.16L60.06 13.76L61.96 13.76L61.96 12.08L60.06 12.08L60.06 10.68L61.96 10.68L61.96 4.24ZM63.86 10.68L65.62 10.68Q67.08 10.68 68 10.04Q68.92 9.40 68.92 8.18L68.92 8.18Q68.92 7.04 68.10 6.45Q67.28 5.86 65.78 5.86L65.78 5.86L63.86 5.86L63.86 10.68Z" fill="rgba(255, 255, 255, 0.98)"/>
        <path d="M82.94 16.34L81.88 15.28L85.42 11.74L81.96 8.28L83.02 7.22L86.48 10.68L89.94 7.22L91 8.28L87.54 11.74L91.08 15.28L90.02 16.34L86.48 12.80L82.94 16.34ZM104.50 15.16L104.50 18.56L102.74 18.56L102.74 15.16L96.54 15.16L96.54 13.92L102.14 4.22L104.50 4.22L104.50 13.64L106.44 13.64L106.44 15.16L104.50 15.16ZM102.74 6.18L98.36 13.64L102.74 13.64L102.74 6.18ZM114.20 18.56L112.44 18.56L112.44 8.18L120.76 8.18L120.76 18.56L119 18.56L119 9.68L114.20 9.68L114.20 18.56ZM122.80 18.58L122.80 16.84Q124 17.02 124.44 15.34L124.44 15.34Q124.60 14.74 124.70 13.83Q124.80 12.92 124.84 11.55Q124.88 10.18 124.88 8.18L124.88 8.18L132.06 8.18L132.06 18.56L130.28 18.56L130.28 9.68L126.54 9.68Q126.52 12.06 126.41 13.49Q126.30 14.92 126.06 15.88L126.06 15.88Q125.68 17.38 124.90 18.02Q124.12 18.66 122.80 18.58L122.80 18.58ZM138.44 9.54L138.44 9.54Q136.78 9.54 135.08 10.56L135.08 10.56L135.08 8.98Q135.82 8.52 136.79 8.25Q137.76 7.98 138.68 7.98L138.68 7.98Q140.64 7.98 141.66 8.80Q142.68 9.62 142.68 11.30L142.68 11.30L142.68 16.88Q142.68 17.22 142.71 17.75Q142.74 18.28 142.78 18.56L142.78 18.56L141.18 18.56Q141.12 18.28 141.07 17.77Q141.02 17.26 141.02 16.88L141.02 16.88L141 16.58Q140.76 17.06 140.34 17.57Q139.92 18.08 139.23 18.42Q138.54 18.76 137.52 18.76L137.52 18.76Q136.12 18.76 135.26 17.96Q134.40 17.16 134.40 15.70L134.40 15.70Q134.40 14.00 135.60 13.20Q136.80 12.40 138.98 12.40L138.98 12.40L140.92 12.40L140.92 11.54Q140.92 10.46 140.36 10.00Q139.80 9.54 138.44 9.54ZM140.92 14.56L140.92 14.56L140.92 13.80L139.16 13.80Q137.58 13.80 136.87 14.26Q136.16 14.72 136.16 15.60L136.16 15.60Q136.16 16.30 136.59 16.74Q137.02 17.18 137.90 17.18L137.90 17.18Q138.72 17.18 139.30 16.85Q139.88 16.52 140.24 16.05Q140.60 15.58 140.76 15.16Q140.92 14.74 140.92 14.56ZM144.50 9.68L144.50 8.18L152.84 8.18L152.84 9.68L149.52 9.68L149.52 18.56L147.76 18.56L147.76 9.68L144.50 9.68ZM159.18 18.76L159.18 18.76Q156.58 18.76 155.21 17.33Q153.84 15.90 153.84 13.36L153.84 13.36Q153.84 11.66 154.48 10.46Q155.12 9.26 156.24 8.62Q157.36 7.98 158.76 7.98L158.76 7.98Q161.14 7.98 162.26 9.55Q163.38 11.12 162.98 13.84L162.98 13.84L155.66 13.84Q155.88 17.18 159.34 17.18L159.34 17.18Q161.24 17.18 162.84 16.10L162.84 16.10L162.84 17.68Q162.12 18.18 161.16 18.47Q160.20 18.76 159.18 18.76ZM158.72 9.54L158.72 9.54Q157.58 9.54 156.76 10.24Q155.94 10.94 155.72 12.36L155.72 12.36L161.30 12.36Q161.36 11.02 160.68 10.28Q160 9.54 158.72 9.54ZM166.30 18.56L164.22 18.56L168.22 13.32L164.36 8.18L166.38 8.18L169.62 12.64L170.74 12.64L170.74 8.18L172.50 8.18L172.50 12.64L173.64 12.64L176.94 8.18L178.88 8.18L175.02 13.26L179.02 18.56L176.88 18.56L173.56 14.14L172.50 14.14L172.50 18.56L170.74 18.56L170.74 14.14L169.66 14.14L166.30 18.56ZM184.20 9.54L184.20 9.54Q182.54 9.54 180.84 10.56L180.84 10.56L180.84 8.98Q181.58 8.52 182.55 8.25Q183.52 7.98 184.44 7.98L184.44 7.98Q186.40 7.98 187.42 8.80Q188.44 9.62 188.44 11.30L188.44 11.30L188.44 16.88Q188.44 17.22 188.47 17.75Q188.50 18.28 188.54 18.56L188.54 18.56L186.94 18.56Q186.88 18.28 186.83 17.77Q186.78 17.26 186.78 16.88L186.78 16.88L186.76 16.58Q186.52 17.06 186.10 17.57Q185.68 18.08 184.99 18.42Q184.30 18.76 183.28 18.76L183.28 18.76Q181.88 18.76 181.02 17.96Q180.16 17.16 180.16 15.70L180.16 15.70Q180.16 14.00 181.36 13.20Q182.56 12.40 184.74 12.40L184.74 12.40L186.68 12.40L186.68 11.54Q186.68 10.46 186.12 10.00Q185.56 9.54 184.20 9.54ZM186.68 14.56L186.68 14.56L186.68 13.80L184.92 13.80Q183.34 13.80 182.63 14.26Q181.92 14.72 181.92 15.60L181.92 15.60Q181.92 16.30 182.35 16.74Q182.78 17.18 183.66 17.18L183.66 17.18Q184.48 17.18 185.06 16.85Q185.64 16.52 186 16.05Q186.36 15.58 186.52 15.16Q186.68 14.74 186.68 14.56ZM199.24 18.56L199.24 18.56L195.20 18.56L195.20 8.18L199.28 8.18Q201.14 8.18 202.11 8.83Q203.08 9.48 203.08 10.86L203.08 10.86Q203.08 11.76 202.61 12.32Q202.14 12.88 201.28 13.12L201.28 13.12Q203.50 13.48 203.50 15.58L203.50 15.58Q203.50 16.64 202.95 17.30Q202.40 17.96 201.44 18.26Q200.48 18.56 199.24 18.56ZM199.26 9.68L199.26 9.68L196.96 9.68L196.96 12.50L199.12 12.50Q200.12 12.50 200.73 12.14Q201.34 11.78 201.34 11.10L201.34 11.10Q201.34 10.28 200.80 9.98Q200.26 9.68 199.26 9.68ZM199.22 13.90L199.22 13.90L196.96 13.90L196.96 17.06L199.22 17.06Q200.34 17.06 201.02 16.73Q201.70 16.40 201.70 15.52L201.70 15.52Q201.70 14.64 201.08 14.27Q200.46 13.90 199.22 13.90ZM216.60 18.76L216.60 18.76Q214.48 18.76 212.89 17.88Q211.30 17 210.42 15.35Q209.54 13.70 209.54 11.40L209.54 11.40Q209.54 7.94 211.36 5.99Q213.18 4.04 216.56 4.04L216.56 4.04Q217.82 4.04 218.97 4.31Q220.12 4.58 220.92 5.08L220.92 5.08L220.92 6.88Q220.06 6.34 218.91 6.04Q217.76 5.74 216.54 5.74L216.54 5.74Q214.02 5.74 212.80 7.16Q211.58 8.58 211.58 11.40L211.58 11.40Q211.58 14.24 212.90 15.65Q214.22 17.06 216.76 17.06L216.76 17.06Q219.16 17.06 220.92 15.74L220.92 15.74L220.92 17.54Q220.22 18.10 219.06 18.43Q217.90 18.76 216.60 18.76ZM225.32 18.56L223.56 18.56L223.56 8.18L231.88 8.18L231.88 18.56L230.12 18.56L230.12 9.68L225.32 9.68L225.32 18.56ZM233.92 18.58L233.92 16.84Q235.12 17.02 235.56 15.34L235.56 15.34Q235.72 14.74 235.82 13.83Q235.92 12.92 235.96 11.55Q236 10.18 236 8.18L236 8.18L243.18 8.18L243.18 18.56L241.40 18.56L241.40 9.68L237.66 9.68Q237.64 12.06 237.53 13.49Q237.42 14.92 237.18 15.88L237.18 15.88Q236.80 17.38 236.02 18.02Q235.24 18.66 233.92 18.58L233.92 18.58ZM246.04 8.18L247.80 8.18L247.80 16.12L253.14 8.18L254.92 8.18L254.92 18.56L253.16 18.56L253.16 10.64L247.84 18.56L246.04 18.56L246.04 8.18ZM256.96 9.68L256.96 8.18L265.30 8.18L265.30 9.68L261.98 9.68L261.98 18.56L260.22 18.56L260.22 9.68L256.96 9.68Z" fill="rgba(0, 0, 0, 0.86)"/>
        
    </g>
</svg>