<svg width="245" height="24" viewBox="0 0 245 24" xmlns="http://www.w3.org/2000/svg">
    <g transform="translate(0)">
        
<defs>
<linearGradient id="CashbackGradient" x2="49" gradientUnits="userSpaceOnUse">
<stop stop-color="#FF5C4D"/>
<stop offset="0.4" stop-color="#EB469F"/>
<stop offset="1" stop-color="#8341EF"/>
</linearGradient>
</defs>
        
<rect width="24" height="24" rx="12" fill="url(#CashbackGradient)"/>
<rect x="10" width="43" height="24" rx="2" fill="url(#CashbackGradient)"/>

        <g transform="translate(3, 3)">
<path fill="none" d="M9 18C13.9706 18 18 13.9706 18 9C18 4.02944 13.9706 0 9 0C4.02944 0 0 4.02944 0 9C0 13.9706 4.02944 18 9 18Z"/>
<path fill="rgba(255, 255, 255, 0.98)" fillOpacity="1" d="M18 9C18 13.9706 13.9706 18 9 18C4.02944 18 0 13.9706 0 9C0 4.02944 4.02944 0 9 0C9.97115 0 10.9064 0.153817 11.7826 0.438417L9.73137 6.75H3.74101L3.00901 9H9.00012L7.24512 14.4H9.72012L11.4751 9H18ZM17.7165 6.75H12.2064L13.9239 1.46519C15.7737 2.67647 17.1504 4.55054 17.7165 6.75Z" fill-rule="evenodd" clip-rule="evenodd"/>
</g>
        <path d="M26.98 11.98L26.98 10.28L29.06 10.28Q30.30 10.28 31.07 9.67Q31.84 9.06 31.84 7.94L31.84 7.94Q31.84 6.86 31.09 6.27Q30.34 5.68 29 5.68L29 5.68Q27.98 5.68 26.93 6.07Q25.88 6.46 25.04 7.24L25.04 7.24L25.04 5.16Q25.84 4.60 26.88 4.31Q27.92 4.02 29.10 4.02L29.10 4.02Q31.28 4.02 32.49 5.04Q33.70 6.06 33.70 7.78L33.70 7.78Q33.70 8.90 33.21 9.72Q32.72 10.54 31.90 11.00L31.90 11.00Q32.90 11.36 33.60 12.23Q34.30 13.10 34.30 14.44L34.30 14.44Q34.30 15.46 33.88 16.26Q33.46 17.06 32.73 17.62Q32 18.18 30.99 18.47Q29.98 18.76 28.80 18.76L28.80 18.76Q27.40 18.76 26.33 18.41Q25.26 18.06 24.68 17.66L24.68 17.66L24.68 15.54Q25.50 16.32 26.58 16.72Q27.66 17.12 28.84 17.12L28.84 17.12Q30.44 17.12 31.40 16.41Q32.36 15.70 32.36 14.44L32.36 14.44Q32.36 13.28 31.51 12.63Q30.66 11.98 29.10 11.98L29.10 11.98L26.98 11.98ZM41.76 18.76L41.76 18.76Q40.56 18.76 39.49 18.28Q38.42 17.80 37.61 16.87Q36.80 15.94 36.33 14.56Q35.86 13.18 35.86 11.38L35.86 11.38Q35.86 9.54 36.33 8.16Q36.80 6.78 37.61 5.87Q38.42 4.96 39.49 4.50Q40.56 4.04 41.76 4.04L41.76 4.04Q42.96 4.04 44.02 4.49Q45.08 4.94 45.89 5.85Q46.70 6.76 47.17 8.13Q47.64 9.50 47.64 11.34L47.64 11.34Q47.64 13.14 47.17 14.52Q46.70 15.90 45.89 16.84Q45.08 17.78 44.02 18.27Q42.96 18.76 41.76 18.76ZM41.74 17.12L41.74 17.12Q42.54 17.12 43.27 16.77Q44.00 16.42 44.56 15.70Q45.12 14.98 45.44 13.91Q45.76 12.84 45.76 11.40L45.76 11.40Q45.76 9.92 45.44 8.84Q45.12 7.76 44.57 7.06Q44.02 6.36 43.29 6.02Q42.56 5.68 41.76 5.68L41.76 5.68Q40.96 5.68 40.23 6.02Q39.50 6.36 38.94 7.06Q38.38 7.76 38.05 8.84Q37.72 9.92 37.72 11.40L37.72 11.40Q37.72 12.84 38.05 13.91Q38.38 14.98 38.93 15.70Q39.48 16.42 40.21 16.77Q40.94 17.12 41.74 17.12Z" fill="rgba(255, 255, 255, 0.98)"/>
        <path d="M64.14 8.04L64.14 8.04Q65.46 8.04 66.51 8.66Q67.56 9.28 68.18 10.47Q68.80 11.66 68.80 13.36L68.80 13.36Q68.80 15.08 68.14 16.29Q67.48 17.50 66.34 18.13Q65.20 18.76 63.76 18.76L63.76 18.76Q62.30 18.76 61.17 18.09Q60.04 17.42 59.40 16.06Q58.76 14.70 58.76 12.60L58.76 12.60Q58.76 10.32 59.03 8.80Q59.30 7.28 59.88 6.31Q60.46 5.34 61.44 4.76L61.44 4.76Q61.92 4.48 62.44 4.32Q62.96 4.16 63.75 4.07Q64.54 3.98 65.78 3.94L65.78 3.94Q66.56 3.88 67.10 3.74Q67.64 3.60 68.08 3.36L68.08 3.36L68.08 4.96Q67.70 5.20 67.24 5.33Q66.78 5.46 65.96 5.54L65.96 5.54Q64.78 5.66 64.09 5.70Q63.40 5.74 62.98 5.82Q62.56 5.90 62.14 6.14L62.14 6.14Q61.28 6.62 60.84 7.57Q60.40 8.52 60.24 10.38L60.24 10.38Q61.28 8.04 64.14 8.04ZM63.76 17.18L63.76 17.18Q65.16 17.18 66.08 16.25Q67 15.32 67 13.36L67 13.36Q67 11.40 66.08 10.47Q65.16 9.54 63.76 9.54L63.76 9.54Q62.38 9.54 61.47 10.46Q60.56 11.38 60.56 13.30L60.56 13.30Q60.56 15.30 61.47 16.24Q62.38 17.18 63.76 17.18ZM74.62 9.54L74.62 9.54Q72.96 9.54 71.26 10.56L71.26 10.56L71.26 8.98Q72 8.52 72.97 8.25Q73.94 7.98 74.86 7.98L74.86 7.98Q76.82 7.98 77.84 8.80Q78.86 9.62 78.86 11.30L78.86 11.30L78.86 16.88Q78.86 17.22 78.89 17.75Q78.92 18.28 78.96 18.56L78.96 18.56L77.36 18.56Q77.30 18.28 77.25 17.77Q77.20 17.26 77.20 16.88L77.20 16.88L77.18 16.58Q76.94 17.06 76.52 17.57Q76.10 18.08 75.41 18.42Q74.72 18.76 73.70 18.76L73.70 18.76Q72.30 18.76 71.44 17.96Q70.58 17.16 70.58 15.70L70.58 15.70Q70.58 14.00 71.78 13.20Q72.98 12.40 75.16 12.40L75.16 12.40L77.10 12.40L77.10 11.54Q77.10 10.46 76.54 10.00Q75.98 9.54 74.62 9.54ZM77.10 14.56L77.10 14.56L77.10 13.80L75.34 13.80Q73.76 13.80 73.05 14.26Q72.34 14.72 72.34 15.60L72.34 15.60Q72.34 16.30 72.77 16.74Q73.20 17.18 74.08 17.18L74.08 17.18Q74.90 17.18 75.48 16.85Q76.06 16.52 76.42 16.05Q76.78 15.58 76.94 15.16Q77.10 14.74 77.10 14.56ZM80.88 18.58L80.88 16.84Q82.08 17.02 82.52 15.34L82.52 15.34Q82.68 14.74 82.78 13.83Q82.88 12.92 82.92 11.55Q82.96 10.18 82.96 8.18L82.96 8.18L90.14 8.18L90.14 18.56L88.36 18.56L88.36 9.68L84.62 9.68Q84.60 12.06 84.49 13.49Q84.38 14.92 84.14 15.88L84.14 15.88Q83.76 17.38 82.98 18.02Q82.20 18.66 80.88 18.58L80.88 18.58ZM92.26 18.58L92.26 16.84Q93.46 17.02 93.90 15.34L93.90 15.34Q94.06 14.74 94.16 13.83Q94.26 12.92 94.30 11.55Q94.34 10.18 94.34 8.18L94.34 8.18L101.52 8.18L101.52 18.56L99.74 18.56L99.74 9.68L96.00 9.68Q95.98 12.06 95.87 13.49Q95.76 14.92 95.52 15.88L95.52 15.88Q95.14 17.38 94.36 18.02Q93.58 18.66 92.26 18.58L92.26 18.58ZM108.74 18.76L108.74 18.76Q107.32 18.76 106.19 18.13Q105.06 17.50 104.40 16.29Q103.74 15.08 103.74 13.36L103.74 13.36Q103.74 11.64 104.40 10.44Q105.06 9.24 106.19 8.61Q107.32 7.98 108.74 7.98L108.74 7.98Q110.18 7.98 111.32 8.61Q112.46 9.24 113.12 10.44Q113.78 11.64 113.78 13.36L113.78 13.36Q113.78 15.08 113.12 16.29Q112.46 17.50 111.32 18.13Q110.18 18.76 108.74 18.76ZM108.74 17.18L108.74 17.18Q110.14 17.18 111.06 16.25Q111.98 15.32 111.98 13.36L111.98 13.36Q111.98 11.40 111.06 10.47Q110.14 9.54 108.74 9.54L108.74 9.54Q107.36 9.54 106.45 10.47Q105.54 11.40 105.54 13.36L105.54 13.36Q105.54 15.32 106.45 16.25Q107.36 17.18 108.74 17.18ZM120.06 18.56L120.06 18.56L116.02 18.56L116.02 8.18L120.10 8.18Q121.96 8.18 122.93 8.83Q123.90 9.48 123.90 10.86L123.90 10.86Q123.90 11.76 123.43 12.32Q122.96 12.88 122.10 13.12L122.10 13.12Q124.32 13.48 124.32 15.58L124.32 15.58Q124.32 16.64 123.77 17.30Q123.22 17.96 122.26 18.26Q121.30 18.56 120.06 18.56ZM120.08 9.68L120.08 9.68L117.78 9.68L117.78 12.50L119.94 12.50Q120.94 12.50 121.55 12.14Q122.16 11.78 122.16 11.10L122.16 11.10Q122.16 10.28 121.62 9.98Q121.08 9.68 120.08 9.68ZM120.04 13.90L120.04 13.90L117.78 13.90L117.78 17.06L120.04 17.06Q121.16 17.06 121.84 16.73Q122.52 16.40 122.52 15.52L122.52 15.52Q122.52 14.64 121.90 14.27Q121.28 13.90 120.04 13.90ZM131.40 18.56L131.40 4.22L142.18 4.22L142.18 18.56L140.28 18.56L140.28 5.94L133.28 5.94L133.28 18.56L131.40 18.56ZM144.54 18.58L144.54 16.84Q145.74 17.02 146.18 15.34L146.18 15.34Q146.34 14.74 146.44 13.83Q146.54 12.92 146.58 11.55Q146.62 10.18 146.62 8.18L146.62 8.18L153.80 8.18L153.80 18.56L152.02 18.56L152.02 9.68L148.28 9.68Q148.26 12.06 148.15 13.49Q148.04 14.92 147.80 15.88L147.80 15.88Q147.42 17.38 146.64 18.02Q145.86 18.66 144.54 18.58L144.54 18.58ZM165.12 18.76L165.12 18.76Q163.84 18.76 162.80 18.20Q161.76 17.64 161.11 16.57Q160.46 15.50 160.34 13.96L160.34 13.96L158.52 13.96L158.52 18.56L156.76 18.56L156.76 8.18L158.52 8.18L158.52 12.46L160.38 12.46Q160.54 11.02 161.19 10.02Q161.84 9.02 162.86 8.50Q163.88 7.98 165.12 7.98L165.12 7.98Q166.50 7.98 167.60 8.61Q168.70 9.24 169.33 10.44Q169.96 11.64 169.96 13.36L169.96 13.36Q169.96 15.08 169.33 16.29Q168.70 17.50 167.60 18.13Q166.50 18.76 165.12 18.76ZM165.12 17.18L165.12 17.18Q166.42 17.18 167.28 16.25Q168.14 15.32 168.14 13.36L168.14 13.36Q168.14 11.40 167.28 10.47Q166.42 9.54 165.12 9.54L165.12 9.54Q163.84 9.54 162.98 10.47Q162.12 11.40 162.12 13.36L162.12 13.36Q162.12 15.32 162.98 16.25Q163.84 17.18 165.12 17.18ZM176.68 18.76L176.68 18.76Q174.26 18.76 172.86 17.33Q171.46 15.90 171.46 13.36L171.46 13.36Q171.46 10.82 172.88 9.40Q174.30 7.98 176.76 7.98L176.76 7.98Q177.70 7.98 178.52 8.19Q179.34 8.40 179.84 8.80L179.84 8.80L179.84 10.38Q178.48 9.54 176.78 9.54L176.78 9.54Q174.98 9.54 174.12 10.49Q173.26 11.44 173.26 13.36L173.26 13.36Q173.26 15.28 174.09 16.23Q174.92 17.18 176.68 17.18L176.68 17.18Q178.38 17.18 179.84 16.36L179.84 16.36L179.84 17.94Q178.54 18.76 176.68 18.76ZM185.82 9.54L185.82 9.54Q184.16 9.54 182.46 10.56L182.46 10.56L182.46 8.98Q183.20 8.52 184.17 8.25Q185.14 7.98 186.06 7.98L186.06 7.98Q188.02 7.98 189.04 8.80Q190.06 9.62 190.06 11.30L190.06 11.30L190.06 16.88Q190.06 17.22 190.09 17.75Q190.12 18.28 190.16 18.56L190.16 18.56L188.56 18.56Q188.50 18.28 188.45 17.77Q188.40 17.26 188.40 16.88L188.40 16.88L188.38 16.58Q188.14 17.06 187.72 17.57Q187.30 18.08 186.61 18.42Q185.92 18.76 184.90 18.76L184.90 18.76Q183.50 18.76 182.64 17.96Q181.78 17.16 181.78 15.70L181.78 15.70Q181.78 14.00 182.98 13.20Q184.18 12.40 186.36 12.40L186.36 12.40L188.30 12.40L188.30 11.54Q188.30 10.46 187.74 10.00Q187.18 9.54 185.82 9.54ZM188.30 14.56L188.30 14.56L188.30 13.80L186.54 13.80Q184.96 13.80 184.25 14.26Q183.54 14.72 183.54 15.60L183.54 15.60Q183.54 16.30 183.97 16.74Q184.40 17.18 185.28 17.18L185.28 17.18Q186.10 17.18 186.68 16.85Q187.26 16.52 187.62 16.05Q187.98 15.58 188.14 15.16Q188.30 14.74 188.30 14.56Z" fill="rgba(0, 0, 0, 0.86)"/>
    </g>
</svg>