<svg width="50" height="20" viewBox="0 0 50 20" fill="none" xmlns="http://www.w3.org/2000/svg">
<path d="M31.8059 3.10278V16.5477H29.4685V4.92124H25.2959V16.5477H22.9585V3.10278H31.8059Z" fill="black" fill-opacity="0.86"/>
<path d="M35.7199 16.7412C34.6896 16.7412 33.8976 16.5413 33.3439 16.1415V14.265C33.6401 14.4713 33.962 14.6325 34.3097 14.7486C34.6703 14.8647 35.0953 14.9227 35.5847 14.9227C36.3187 14.9227 36.8725 14.7099 37.246 14.2843C37.6195 13.8458 37.8513 13.2461 37.9414 12.4852H34.5609V10.6668H37.9221C37.7032 9.18364 36.9433 8.44207 35.6426 8.44207C35.2434 8.44207 34.8442 8.50655 34.445 8.63552C34.0586 8.76449 33.7495 8.89991 33.5177 9.04177V7.0879C33.7624 6.95893 34.0908 6.84931 34.5029 6.75903C34.915 6.66876 35.4108 6.62362 35.9904 6.62362C36.7115 6.62362 37.3426 6.75259 37.8835 7.01052C38.4372 7.25556 38.8944 7.60378 39.255 8.05517C39.6285 8.49366 39.9054 9.02887 40.0856 9.66082C40.2788 10.2799 40.3754 10.9569 40.3754 11.6921C40.3754 13.33 39.9891 14.581 39.2164 15.445C38.4565 16.3091 37.2911 16.7412 35.7199 16.7412Z" fill="black" fill-opacity="0.86"/>
<path d="M45.8389 5.54028C44.9117 5.54028 44.2098 5.30814 43.7333 4.84386C43.2697 4.37957 43.0379 3.79921 43.0379 3.10278H44.9696C44.9696 3.4381 45.0469 3.68314 45.2014 3.8379C45.3689 3.99266 45.5814 4.07005 45.8389 4.07005C46.0836 4.07005 46.2768 3.99266 46.4184 3.8379C46.5601 3.67024 46.6309 3.4252 46.6309 3.10278H48.5627C48.5627 3.4381 48.5047 3.75407 48.3888 4.0507C48.2729 4.34733 48.0991 4.60526 47.8673 4.82451C47.6483 5.04376 47.365 5.21786 47.0173 5.34683C46.6825 5.4758 46.2897 5.54028 45.8389 5.54028ZM44.139 6.81707V12.8528L47.6548 6.81707H49.7024V16.5477H47.4809V10.5314L43.9651 16.5477H41.9175V6.81707H44.139Z" fill="black" fill-opacity="0.86"/>
<g clip-path="url(#clip0_11616_34841)">
<ellipse cx="9.21336" cy="10.0001" rx="8.91574" ry="8.92857" fill="#FC3F1D"/>
<path d="M10.4699 15.3661H12.3326V4.65186H9.6232C6.89845 4.65186 5.4668 6.05473 5.4668 8.12051C5.4668 9.77005 6.2519 10.7413 7.65276 11.7433L5.2205 15.3661H7.23712L9.94648 11.3117L9.00744 10.6796C7.86828 9.90879 7.31409 9.30756 7.31409 8.0126C7.31409 6.87179 8.11458 6.10098 9.6386 6.10098H10.4699V15.3661Z" fill="white"/>
</g>
<defs>
<clipPath id="clip0_11616_34841">
<rect x="0.297623" y="1.07153" width="17.8315" height="17.8571" rx="8.91574" fill="white"/>
</clipPath>
</defs>
</svg>
