<svg width="70" height="20" viewBox="0 0 70 20" fill="none" xmlns="http://www.w3.org/2000/svg">
<path d="M26.8667 17.3309C25.1103 17.3309 23.7243 16.6928 22.7089 15.4167C21.6934 14.1268 21.1857 12.3154 21.1857 9.98263C21.1857 7.70473 21.6866 5.90712 22.6883 4.58978C23.7037 3.27244 25.1583 2.61377 27.052 2.61377C27.7106 2.61377 28.3007 2.70983 28.8221 2.90194C29.3436 3.08033 29.769 3.28616 30.0983 3.51944V5.51603C29.7278 5.28275 29.2887 5.0632 28.781 4.85736C28.2733 4.65153 27.7381 4.54861 27.1755 4.54861C25.9679 4.54861 25.0897 4.99459 24.5408 5.88653C23.9919 6.77848 23.7175 8.14385 23.7175 9.98263C23.7175 11.7665 23.9919 13.1182 24.5408 14.0376C25.0897 14.9432 25.9267 15.3961 27.052 15.3961C27.7106 15.3961 28.2801 15.3 28.7604 15.1079C29.2407 14.9021 29.6866 14.6482 30.0983 14.3463V16.3429C29.7827 16.5625 29.3573 16.782 28.8221 17.0016C28.287 17.2211 27.6352 17.3309 26.8667 17.3309Z" fill="black"/>
<path d="M31.6479 6.77162H39.7166V17.1251H37.2671V8.70646H34.0973V17.1251H31.6479V6.77162Z" fill="black"/>
<path d="M40.9554 15.005C40.9554 15.005 41.0035 15.0393 41.0995 15.1079C41.1956 15.1628 41.3328 15.1902 41.5112 15.1902C41.9091 15.1902 42.1698 14.9844 42.2933 14.5727C42.4168 14.1611 42.4992 13.4063 42.5403 12.3086L42.7462 6.77162H49.7651V17.1251H47.3157V8.70646H44.8251L44.681 12.4115C44.6261 14.1268 44.4134 15.3755 44.0429 16.1577C43.6724 16.9398 42.9657 17.3309 41.9228 17.3309C41.6347 17.3309 41.4014 17.2966 41.223 17.228C41.0446 17.1594 40.9554 17.1251 40.9554 17.1251V15.005Z" fill="black"/>
<path d="M51.8293 6.77162H54.2169V13.1731L58.0043 6.77162H60.1244V17.1251H57.7367V10.7236L53.9494 17.1251H51.8293V6.77162Z" fill="black"/>
<path d="M69.7766 8.70646H66.8949V17.1251H64.4455V8.70646H61.5638V6.77162H69.7766V8.70646Z" fill="black"/>
<g clip-path="url(#clip0_11616_34779)">
<path d="M9.86312 10.0455L16.537 16.8797L16.4009 17.0037L16.3434 17.0582C14.4746 18.7251 12.026 19.5914 9.5247 19.4705C7.02345 19.3497 4.66972 18.2513 2.9704 16.4119C1.27108 14.5726 0.362115 12.1394 0.439261 9.63646C0.516408 7.13348 1.57349 4.76092 3.38286 3.02972C5.24316 1.3273 7.69929 0.426352 10.2192 0.52205C12.739 0.617749 15.1198 1.70239 16.8456 3.541L9.86312 10.0455Z" fill="#01B94F"/>
<path d="M3.3889 3.02681C5.24893 1.32588 7.70412 0.426119 10.2228 0.52238C12.7414 0.618642 15.1208 1.70318 16.8456 3.54112C16.8456 3.54112 11.2941 8.73864 11.1821 8.8294C11.1821 8.8294 9.93873 10.0002 9.94781 10.0183C9.95688 10.0365 16.5249 16.8526 16.5249 16.8526L16.3918 16.9796L16.3343 17.0341C12.4134 20.483 6.40515 20.3256 2.85644 16.4895C1.15223 14.6286 0.252023 12.1699 0.351744 9.64858C0.451466 7.12722 1.54305 4.74729 3.3889 3.02681Z" fill="url(#paint0_radial_11616_34779)"/>
<path d="M3.39189 3.02085C5.2534 1.32216 7.70873 0.424442 10.2269 0.521818C12.7451 0.619194 15.1238 1.70384 16.8485 3.5412C16.8485 3.5412 11.4453 8.62375 11.2245 8.80225C11.2245 8.80225 10.0143 9.95792 10.0355 9.99423C10.0809 10.1031 16.5158 16.8224 16.5158 16.8224L16.3826 16.9495L16.3252 17.0039C12.4134 20.4467 6.40209 20.2773 2.86548 16.4533C1.16383 14.5975 0.264346 12.1446 0.362942 9.62869C0.461539 7.11279 1.55022 4.73775 3.39189 3.02085Z" fill="url(#paint1_radial_11616_34779)"/>
<path d="M3.398 3.0177C5.2596 1.32124 7.71384 0.425199 10.2306 0.523129C12.7473 0.621058 15.1245 1.7051 16.8486 3.54108C16.8486 3.54108 11.5997 8.50565 11.2608 8.7749C11.2608 8.7749 10.0931 9.91242 10.1142 9.96688C10.1838 10.1302 16.5037 16.795 16.5037 16.795L16.3676 16.9221L16.3101 16.9735C12.4105 20.4073 6.40216 20.2318 2.8716 16.4169C1.17269 14.5663 0.274577 12.119 0.373194 9.6088C0.471811 7.0986 1.55915 4.72926 3.398 3.0177Z" fill="url(#paint2_radial_11616_34779)"/>
<path d="M3.40111 3.01482C5.26294 1.31967 7.71675 0.424727 10.2327 0.523216C12.7487 0.621705 15.1251 1.70572 16.8487 3.54123C16.8487 3.54123 11.751 8.38176 11.3003 8.74782C11.3003 8.74782 10.1688 9.87022 10.199 9.94283C10.2898 10.1607 16.4917 16.768 16.4917 16.768L16.3586 16.892C16.3586 16.892 16.3011 16.9434 16.3011 16.9465C12.4105 20.3681 6.40224 20.1805 2.88076 16.3807C1.18458 14.5358 0.287274 12.0947 0.384768 9.59047C0.482262 7.08623 1.56664 4.72228 3.40111 3.01482Z" fill="url(#paint3_radial_11616_34779)"/>
<path d="M3.40705 3.00882C5.26934 1.31628 7.72228 0.42354 10.2368 0.523148C12.7514 0.622756 15.126 1.70673 16.8486 3.54128C16.8486 3.54128 11.9052 8.27289 11.3395 8.72064C11.3395 8.72064 10.2443 9.82488 10.2806 9.91564C10.3956 10.1879 16.4825 16.7378 16.4795 16.7408L16.3464 16.8648L16.2889 16.9193C12.4074 20.3258 6.40212 20.1352 2.88972 16.3445C1.19647 14.5043 0.30042 12.0687 0.397356 9.56992C0.494292 7.07113 1.57633 4.71229 3.40705 3.00882Z" fill="url(#paint4_radial_11616_34779)"/>
<path d="M3.41011 3.0057C5.27264 1.31446 7.72515 0.422825 10.239 0.522993C12.7528 0.623161 15.1266 1.70711 16.8486 3.54118C16.8486 3.54118 12.0565 8.15783 11.3788 8.68424C11.3788 8.68424 10.32 9.77033 10.3653 9.87925C10.5015 10.206 16.4705 16.6983 16.4705 16.6983L16.3373 16.8526L16.2799 16.9041C12.4044 20.2864 6.40216 20.0897 2.89581 16.3081C1.20567 14.4731 0.310956 12.0436 0.407336 9.55073C0.503716 7.05789 1.58335 4.70466 3.41011 3.0057Z" fill="url(#paint5_radial_11616_34779)"/>
<path d="M3.4161 3.00258C5.27886 1.31265 7.73094 0.422112 10.244 0.522839C12.7571 0.623566 15.1301 1.70749 16.8516 3.54109C16.8516 3.54109 12.2107 8.04277 11.4211 8.68414C11.4211 8.68414 10.3955 9.75208 10.447 9.87915C10.6194 10.2452 16.4613 16.6831 16.4583 16.6831L16.3252 16.8071L16.2677 16.8616C12.4044 20.2469 6.4021 20.0412 2.90482 16.2717C1.21704 14.4423 0.323159 12.0186 0.418992 9.53149C0.514826 7.04436 1.59256 4.69661 3.4161 3.00258Z" fill="url(#paint6_radial_11616_34779)"/>
<path d="M3.41907 2.99661C5.28245 1.30836 7.73432 0.419454 10.2467 0.521307C12.759 0.62316 15.1309 1.70762 16.8515 3.54117C16.8515 3.54117 12.3619 7.92486 11.4604 8.64187C11.4604 8.64187 10.4711 9.69468 10.5316 9.852C10.7131 10.2876 16.4492 16.6681 16.4461 16.6681C16.4431 16.6681 16.3221 16.786 16.313 16.7921L16.2555 16.8435C12.4013 20.2077 6.39901 19.9959 2.91081 16.2475C1.22148 14.4227 0.326017 12.0017 0.421327 9.51684C0.516638 7.03195 1.59492 4.68664 3.41907 2.99661Z" fill="url(#paint7_radial_11616_34779)"/>
<path d="M3.42524 2.99372C5.28869 1.3077 7.73947 0.420462 10.2504 0.522867C12.7613 0.625272 15.1317 1.70914 16.8516 3.5413C16.8516 3.5413 12.5163 7.81004 11.4998 8.61478C11.4998 8.61478 10.5469 9.64944 10.6164 9.82491C10.8191 10.315 16.4372 16.6379 16.4372 16.641L16.3041 16.765L16.2466 16.8164C12.4014 20.1806 6.39914 19.9598 2.93514 16.2114C1.24776 14.3934 0.351474 11.9797 0.443382 9.50107C0.535289 7.02241 1.60786 4.68172 3.42524 2.99372Z" fill="url(#paint8_radial_11616_34779)"/>
<path d="M3.4282 2.99061C5.29188 1.30589 7.74223 0.41975 10.2524 0.522714C12.7626 0.625679 15.1321 1.70952 16.8516 3.54122C16.8516 3.54122 12.6676 7.69197 11.527 8.58746C11.527 8.58746 10.6194 9.607 10.686 9.79759C10.9219 10.3331 16.428 16.5985 16.425 16.6016L16.2919 16.7226C16.2919 16.7226 16.2405 16.771 16.2344 16.777C12.3983 20.1291 6.39907 19.8992 2.92297 16.172C2.09059 15.2733 1.44338 14.2195 1.01829 13.0707C0.593202 11.9219 0.398558 10.7007 0.445473 9.47664C0.492389 8.25262 0.779945 7.04984 1.29172 5.93696C1.8035 4.82408 2.52948 3.82291 3.4282 2.99061Z" fill="url(#paint9_radial_11616_34779)"/>
<path d="M3.43434 2.98439C5.29848 1.30227 7.74797 0.418329 10.2567 0.522411C12.7654 0.626494 15.1333 1.7103 16.8517 3.54105C16.8517 3.54105 12.8219 7.57684 11.5785 8.56007C11.5785 8.56007 10.6982 9.56448 10.7829 9.7702C11.0309 10.3753 16.416 16.5802 16.416 16.5832L16.2829 16.7043L16.2254 16.7557C12.3954 20.0896 6.39916 19.8536 2.93516 16.1294C1.25852 14.32 0.369221 11.9186 0.462831 9.45355C0.556442 6.98847 1.6253 4.6615 3.43434 2.98439Z" fill="url(#paint10_radial_11616_34779)"/>
<path d="M3.43732 2.98155C5.30219 1.30055 7.75175 0.417621 10.2602 0.52226C12.7687 0.626898 15.1363 1.71077 16.8547 3.54123C16.8547 3.54123 12.9732 7.47416 11.6178 8.53605C11.6178 8.53605 10.7768 9.51929 10.8645 9.74619C11.1368 10.3906 16.4069 16.5501 16.4039 16.5501L16.2708 16.6742L16.2133 16.7256C12.3953 20.0535 6.39912 19.8115 2.94419 16.0994C2.11444 15.2061 1.46894 14.158 1.0446 13.015C0.620269 11.872 0.425431 10.6566 0.471231 9.43823C0.517031 8.21988 0.802572 7.02252 1.31152 5.91462C1.82047 4.80672 2.54284 3.81003 3.43732 2.98155Z" fill="url(#paint11_radial_11616_34779)"/>
<path d="M3.44337 2.97843C5.30832 1.29965 7.75678 0.418388 10.2638 0.523578C12.7709 0.628769 15.1369 1.71204 16.8547 3.54114C16.8547 3.54114 13.1275 7.34398 11.6571 8.50873C11.6571 8.50873 10.8524 9.47684 10.9492 9.71886C11.2518 10.4268 16.3948 16.5228 16.3948 16.5259L16.2617 16.6499C16.2617 16.6499 16.2103 16.6953 16.2072 16.7013C12.3953 20.0292 6.40215 19.766 2.95327 16.066C-0.495606 12.366 -0.323162 6.39403 3.44337 2.97843Z" fill="url(#paint12_radial_11616_34779)"/>
<path d="M3.44635 2.97223C5.3119 1.29514 7.76016 0.415496 10.2665 0.521811C12.7728 0.628126 15.1378 1.71194 16.8546 3.54099C16.8546 3.54099 13.2787 7.22281 11.7115 8.4753C11.7115 8.4753 10.9401 9.42525 11.046 9.68543C11.3636 10.4478 16.3947 16.4864 16.3947 16.4894L16.2616 16.6104L16.2042 16.6618C12.3892 19.9685 6.38394 19.7114 2.95927 16.0205C-0.465399 12.3296 -0.311107 6.37875 3.44635 2.97223Z" fill="url(#paint13_radial_11616_34779)"/>
<path d="M3.45243 2.96936C5.31806 1.29449 7.76523 0.416509 10.2701 0.523376C12.775 0.630242 15.1385 1.71346 16.8546 3.54115C16.8546 3.54115 13.433 7.11103 11.7388 8.45428C11.7388 8.45428 11.0037 9.3891 11.1156 9.66441C11.4575 10.4782 16.3676 16.4593 16.3676 16.4623L16.2345 16.5833L16.177 16.6348C12.3893 19.9293 6.38398 19.6631 2.96536 15.9843C-0.453266 12.3055 -0.298974 6.36378 3.45243 2.96936Z" fill="url(#paint14_radial_11616_34779)"/>
<path d="M3.45541 2.96626C5.32125 1.29268 7.76799 0.415803 10.2721 0.523228C12.7763 0.630653 15.1389 1.71385 16.8546 3.54107C16.8546 3.54107 13.5842 6.996 11.7781 8.42698C11.7781 8.42698 11.0792 9.33457 11.2002 9.63711C11.5633 10.4993 16.3675 16.432 16.3675 16.435L16.2374 16.556L16.1799 16.6075C12.3862 19.8778 6.38392 19.6177 2.97438 15.9449C-0.435167 12.2722 -0.289951 6.3516 3.45541 2.96626Z" fill="url(#paint15_radial_11616_34779)"/>
<path d="M3.46156 2.96036C5.32869 1.28992 7.7749 0.415627 10.2779 0.524157C12.7808 0.632686 15.1422 1.71544 16.8577 3.54122C16.8577 3.54122 13.7386 6.86909 11.8296 8.3999C11.8296 8.3999 11.1671 9.3075 11.2941 9.61003C11.6693 10.5358 16.3676 16.4019 16.3494 16.4049L16.2163 16.5259C16.1986 16.5446 16.1794 16.5618 16.1589 16.5774C12.3863 19.8508 6.38402 19.5755 2.98355 15.9118C-0.416913 12.2481 -0.271698 6.33663 3.46156 2.96036Z" fill="url(#paint16_radial_11616_34779)"/>
<path d="M3.46462 2.95733C5.33399 1.28941 7.78167 0.418934 10.2844 0.532001C12.7872 0.645069 15.1464 1.7327 16.8577 3.5624C16.8577 3.5624 13.8899 6.7632 11.8569 8.38175C11.8569 8.38175 11.2306 9.26514 11.3668 9.59188C11.7752 10.5751 16.3404 16.3868 16.3374 16.3898C16.3344 16.3928 16.2254 16.4957 16.2043 16.5108L16.1498 16.5622C12.3833 19.8114 6.38406 19.521 2.98964 15.8755C-0.404776 12.23 -0.271662 6.3215 3.46462 2.95733Z" fill="url(#paint17_radial_11616_34779)"/>
<path d="M3.47055 2.95412C5.33926 1.2873 7.78579 0.417479 10.2873 0.530542C12.7888 0.643605 15.1469 1.73058 16.8576 3.55919C16.8576 3.55919 14.0441 6.6541 11.8961 8.35736C11.8961 8.35736 11.3062 9.2226 11.4483 9.56749C11.881 10.6052 16.3312 16.3594 16.3252 16.3624L16.1951 16.4834L16.1376 16.5348C12.3801 19.7719 6.38394 19.4754 2.9986 15.839C-0.386743 12.2026 -0.256654 6.30619 3.47055 2.95412Z" fill="url(#paint18_radial_11616_34779)"/>
<path d="M3.47357 2.93608C5.34245 1.2709 7.78816 0.402124 10.2887 0.515169C12.7893 0.628214 15.1466 1.71413 16.8576 3.54114C16.8576 3.54114 14.1953 6.52109 11.9384 8.31209C11.9384 8.31209 11.3818 9.15918 11.533 9.52222C11.9868 10.6144 16.3191 16.3141 16.3161 16.3171L16.183 16.4381L16.1255 16.4865C12.3801 19.7327 6.38393 19.4272 3.00464 15.8058C-0.374651 12.1845 -0.244562 6.29117 3.47357 2.93608Z" fill="url(#paint19_radial_11616_34779)"/>
<path d="M3.47962 2.93604C5.34784 1.27197 7.79239 0.403843 10.2917 0.516883C12.791 0.629924 15.1472 1.71518 16.8576 3.54111C15.3536 5.24652 13.7223 6.83535 11.9778 8.2939C11.9778 8.2939 11.4574 9.12587 11.6177 9.50403C12.0927 10.6506 16.307 16.2898 16.304 16.2959L16.1739 16.4139L16.1164 16.4653C12.3771 19.6933 6.38393 19.3817 3.01372 15.7695C-0.356499 12.1572 -0.235486 6.26391 3.47962 2.93604Z" fill="url(#paint20_radial_11616_34779)"/>
<path d="M3.48263 2.93607C5.3512 1.27272 7.79559 0.405077 10.2947 0.518107C12.7938 0.631137 15.1499 1.7159 16.8606 3.54113C15.3776 5.24189 13.7588 6.81925 12.0201 8.25762C12.0201 8.25762 11.5391 9.07143 11.7176 9.46775C12.2168 10.6779 16.3161 16.2536 16.31 16.2566L16.1799 16.3776L16.1225 16.429C12.3771 19.651 6.38393 19.3333 3.01976 15.7332C-0.344407 12.1331 -0.223394 6.26393 3.48263 2.93607Z" fill="url(#paint21_radial_11616_34779)"/>
<path d="M3.48869 2.93609C5.35726 1.2753 7.80018 0.409265 10.2976 0.522269C12.795 0.635274 15.1497 1.7184 16.8607 3.54116C15.401 5.24313 13.7933 6.81236 12.0564 8.23042C12.0564 8.23042 11.6117 9.02911 11.7841 9.44055C12.3045 10.7082 16.2858 16.2475 16.2828 16.2475C16.2798 16.2475 16.1769 16.3474 16.1497 16.3686L16.0952 16.417C12.3741 19.6117 6.38393 19.2729 3.02884 15.6969C-0.326252 12.121 -0.214314 6.26396 3.48869 2.93609Z" fill="url(#paint22_radial_11616_34779)"/>
<path d="M3.49171 2.93609C5.36012 1.27622 7.80238 0.410742 10.299 0.523739C12.7957 0.636736 15.1498 1.71929 16.8606 3.54116C15.4245 5.24622 13.829 6.81035 12.0957 8.21227C12.0957 8.21227 11.6873 8.9928 11.8658 9.4224C12.4134 10.7324 16.2767 16.2052 16.2707 16.2082L16.1406 16.3262L16.0831 16.3776C12.371 19.5754 6.38392 19.2396 3.03791 15.6606C-0.308105 12.0817 -0.202218 6.2337 3.49171 2.93609Z" fill="url(#paint23_radial_11616_34779)"/>
<path d="M3.49479 2.93609C5.36304 1.27713 7.80464 0.412218 10.3006 0.525208C12.7965 0.638198 15.15 1.72018 16.8607 3.54116C15.4492 5.24921 13.8645 6.80649 12.1321 8.18806C12.1321 8.18806 11.76 8.95045 11.9476 9.39819C12.5163 10.7626 16.2617 16.1749 16.2587 16.181L16.1255 16.299L16.0681 16.3504C12.3711 19.533 6.38398 19.1912 3.05612 15.6243C-0.271743 12.0575 -0.19006 6.21857 3.49479 2.93609Z" fill="url(#paint24_radial_11616_34779)"/>
<path d="M3.50081 2.93609C5.36872 1.27896 7.80901 0.415172 10.3035 0.528147C12.798 0.641121 15.1502 1.72196 16.8607 3.54116C15.4756 5.2498 13.9049 6.7992 12.1775 8.16083C12.1775 8.16083 11.8386 8.90809 12.0353 9.37096C12.6403 10.7898 16.2707 16.1477 16.2496 16.1537L16.1195 16.2717L16.062 16.3201C12.3681 19.4937 6.38395 19.1428 3.05608 15.588C-0.271782 12.0333 -0.181022 6.20345 3.50081 2.93609Z" fill="url(#paint25_radial_11616_34779)"/>
<path d="M3.50379 2.93613C5.37188 1.28063 7.81135 0.417883 10.3049 0.53084C12.7984 0.643797 15.1499 1.72358 16.8606 3.5412C15.5034 5.25354 13.9441 6.79555 12.2167 8.13365C12.2167 8.13365 11.9142 8.86275 12.1169 9.34378C12.722 10.8171 16.2435 16.1175 16.2374 16.1205C16.2314 16.1235 16.1376 16.2143 16.1073 16.2385L16.0498 16.2899C12.368 19.4544 6.38391 19.0974 3.05604 15.5518C-0.271819 12.0061 -0.168958 6.18836 3.50379 2.93613Z" fill="url(#paint26_radial_11616_34779)"/>
<path d="M3.50982 2.91788C5.38004 1.26558 7.8202 0.406558 10.313 0.522898C12.8059 0.639238 15.1554 1.7218 16.8636 3.5411C16.8636 3.5411 15.4175 5.59832 12.256 8.10632C12.256 8.10632 11.9898 8.82029 12.2016 9.31645C12.8369 10.8291 16.2313 16.0902 16.2283 16.0932L16.0952 16.2112L16.0407 16.2626C12.365 19.415 6.38388 19.0489 3.05602 15.5153C-0.271836 11.9818 -0.159899 6.17313 3.50982 2.91788Z" fill="url(#paint27_radial_11616_34779)"/>
<path d="M3.51291 2.91176C5.38406 1.26186 7.82385 0.404925 10.3157 0.522377C12.8076 0.639829 15.156 1.72245 16.8637 3.54103C16.8637 3.54103 15.5719 5.47119 12.2954 8.07902C12.1734 8.47317 12.1734 8.89501 12.2954 9.28916C12.955 10.8714 16.2284 16.0568 16.2284 16.0629L16.0983 16.1809L16.0408 16.2293C12.362 19.3756 6.38395 19.0035 3.07726 15.482C-0.229422 11.9605 -0.147738 6.16097 3.51291 2.91176Z" fill="url(#paint28_radial_11616_34779)"/>
<path d="M3.51899 2.90886C5.38952 1.25972 7.82855 0.403483 10.3195 0.521506C12.8104 0.639529 15.1575 1.72254 16.8637 3.54116C16.8637 3.54116 15.7232 5.35635 12.3257 8.03982C12.2188 8.43784 12.2304 8.85841 12.359 9.24995C13.0397 10.9078 16.2102 16.0388 16.2042 16.0448L16.0741 16.1628L16.0197 16.2112C12.362 19.3364 6.38398 18.9703 3.08334 15.4458C-0.217291 11.9213 -0.135607 6.14596 3.51899 2.90886Z" fill="url(#paint29_radial_11616_34779)"/>
<path d="M3.52208 2.90579C5.39282 1.25794 7.83141 0.40279 10.3216 0.52137C12.8118 0.63995 15.1581 1.72295 16.8638 3.54111C16.8638 3.54111 15.8775 5.25042 12.3742 8.02767C12.2899 8.43049 12.3161 8.8486 12.4498 9.2378C13.1547 10.929 16.2012 16.0024 16.1952 16.0085L16.0651 16.1234L16.0076 16.1749C12.3591 19.297 6.38404 18.9067 3.09248 15.4095C-0.250507 11.8638 -0.126469 6.13079 3.52208 2.90579Z" fill="url(#paint30_radial_11616_34779)"/>
<path d="M3.52801 2.89993C5.39951 1.25539 7.83708 0.402884 10.3256 0.522567C12.8141 0.642251 15.1586 1.72475 16.8637 3.5413C16.8637 3.5413 16.0287 5.12355 12.4134 7.98854C12.351 8.39566 12.3926 8.81195 12.5344 9.19867C13.2605 10.9443 16.189 15.9633 16.183 15.9663L16.0529 16.0843L15.9954 16.1327C12.365 19.2337 6.38997 18.8555 3.09841 15.3522C-0.193151 11.8489 -0.114492 6.11586 3.52801 2.89993Z" fill="url(#paint31_radial_11616_34779)"/>
<path d="M3.53118 2.89665C5.40339 1.25321 7.84103 0.401706 10.3293 0.521943C12.8176 0.642181 15.1618 1.72475 16.8668 3.54105C16.8668 3.54105 16.1831 5.00531 12.4559 7.96105C12.4151 8.37165 12.471 8.78611 12.6193 9.17119C13.3665 10.9955 16.1771 15.9449 16.171 15.96L16.0409 16.078L15.9865 16.1264C12.3561 19.2153 6.38407 18.8129 3.10764 15.3398C-0.220225 11.8123 -0.102237 6.10048 3.53118 2.89665Z" fill="url(#paint32_radial_11616_34779)"/>
<path d="M3.53718 2.8938C5.4091 1.25184 7.84581 0.401502 10.3329 0.522299C12.82 0.643097 15.1628 1.72558 16.8668 3.54122C16.8668 3.54122 16.3343 4.90262 12.4952 7.9461C12.478 8.35945 12.5481 8.77177 12.7009 9.15623C13.4724 11.0229 16.1679 15.9269 16.1619 15.9451L16.0318 16.06L15.9743 16.1084C12.353 19.1761 6.38401 18.7677 3.11363 15.3007C-0.205156 11.7852 -0.0932187 6.08552 3.53718 2.8938Z" fill="url(#paint33_radial_11616_34779)"/>
<path d="M3.54027 2.8877C5.41311 1.24813 7.84945 0.399879 10.3356 0.521788C12.8217 0.643696 15.1634 1.72624 16.8668 3.54117C16.8668 3.54117 16.4887 4.78458 12.5346 7.91882C12.5411 8.33933 12.6263 8.7549 12.7857 9.14408C13.5813 11.0531 16.1559 15.8996 16.1498 15.9057L16.0197 16.0206L15.9653 16.0691C12.353 19.1367 6.38408 18.7192 3.12277 15.2643C-0.189965 11.761 -0.0810528 6.07035 3.54027 2.8877Z" fill="url(#paint34_radial_11616_34779)"/>
<path d="M3.54621 2.88461C5.4201 1.25149 7.85427 0.408649 10.3368 0.53334C12.8194 0.658032 15.1568 1.74054 16.8577 3.55321C16.8577 3.55321 16.6308 4.66956 12.5647 7.89153C12.5998 8.31343 12.7019 8.72703 12.8672 9.11679C13.6871 11.0833 16.1467 15.8723 16.1407 15.8784L16.0106 15.9934C15.9901 16.0078 15.9708 16.024 15.9531 16.0418C12.3499 19.0973 6.38396 18.6677 3.13174 15.2279C-0.174949 11.7337 -0.0720882 6.05818 3.54621 2.88461Z" fill="url(#paint35_radial_11616_34779)"/>
<path d="M3.54916 2.88174C5.42311 1.24828 7.85767 0.405493 10.3405 0.530761C12.8232 0.656028 15.1606 1.73958 16.8606 3.55337C16.8606 3.55337 16.788 4.55475 12.607 7.86446C12.6664 8.28681 12.7803 8.69968 12.9458 9.09274C13.7929 11.1046 16.1345 15.8423 16.1285 15.8483L15.9984 15.9633C15.9802 15.9633 15.9591 15.9996 15.9409 16.0117C12.3468 19.0582 6.3839 18.6256 3.13772 15.1918C-0.15989 11.7097 -0.0600549 6.04321 3.54916 2.88174Z" fill="url(#paint36_radial_11616_34779)"/>
<path d="M3.55519 2.87546C5.43055 1.24419 7.86524 0.403394 10.3476 0.529768C12.8299 0.656142 15.1666 1.73985 16.8666 3.55313C16.8666 3.55313 16.9453 4.44863 12.6524 7.84002C12.7403 8.26033 12.87 8.67079 13.0396 9.06528C13.9018 11.1407 16.1285 15.8148 16.1194 15.8208C16.1103 15.8269 16.0316 15.9025 15.9893 15.9358L15.9348 15.9842C12.3498 19.0247 6.38388 18.5769 3.14678 15.1553C-0.147806 11.6822 -0.0479703 6.02785 3.55519 2.87546Z" fill="url(#paint37_radial_11616_34779)"/>
<path d="M3.55831 2.87245C5.43411 1.24122 7.8694 0.401007 10.352 0.528522C12.8346 0.656037 15.171 1.74135 16.8698 3.55618C16.8698 3.55618 17.0997 4.32158 12.6948 7.81282C12.8079 8.23139 12.9494 8.64177 13.1183 9.0411C14.0048 11.1588 16.1134 15.7876 16.1074 15.7936L15.9773 15.9086L15.9198 15.957C12.3469 18.9702 6.38397 18.5285 3.15292 15.122C-0.132585 11.655 -0.0387996 6.01274 3.55831 2.87245Z" fill="url(#paint38_radial_11616_34779)"/>
<path d="M3.56447 2.86963C5.44065 1.23878 7.87617 0.39909 10.3588 0.527169C12.8414 0.655248 15.1775 1.74112 16.8759 3.55638C16.8759 3.55638 17.2511 4.2038 12.7373 7.77671C12.7373 7.77671 12.9037 8.28496 13.2062 9.00499C14.1138 11.1893 16.1045 15.7515 16.0984 15.7575L15.9683 15.8725L15.9139 15.9179C12.344 18.9402 6.38408 18.4833 3.16211 15.0859C-0.117353 11.628 -0.0265931 5.99782 3.56447 2.86963Z" fill="url(#paint39_radial_11616_34779)"/>
<path d="M16.0833 15.7392C12.5497 18.9158 6.44153 18.4953 3.16813 15.0374C-0.105277 11.5794 -0.0175431 5.96138 3.56747 2.85134C5.44473 1.22197 7.88054 0.383797 10.3629 0.512994C12.8453 0.642191 15.1809 1.7287 16.8789 3.54414C16.8789 3.54414 17.4144 4.0766 12.7826 7.74632C12.7735 7.75842 16.0954 15.7302 16.0833 15.7392Z" fill="url(#paint40_radial_11616_34779)"/>
<path d="M12.6403 7.8606C11.1912 9.04955 9.40928 10.4503 7.33693 12.0204C8.87643 13.6853 10.6669 15.0991 12.6434 16.2105C14.3406 17.1181 15.6687 17.2875 16.3191 16.7127C16.9696 16.1379 16.8909 14.8128 16.1346 13.0823C15.2391 11.1759 14.0611 9.41551 12.6403 7.8606Z" fill="url(#paint41_linear_11616_34779)"/>
<path d="M12.7704 7.74268L12.0443 8.34774C13.3738 9.80918 14.479 11.4598 15.3238 13.2457C16.065 14.952 16.0468 15.8082 15.8078 16.023C15.5688 16.2378 14.5372 16.2923 12.8884 15.4179C11.0619 14.3821 9.41003 13.0651 7.99341 11.5153L7.18262 12.1203L7.37322 12.3049C10.807 15.8536 14.5221 17.8745 16.1558 17.1393C16.2042 17.1151 16.2526 17.0909 16.2979 17.0637H16.3161C16.3793 17.0245 16.439 16.98 16.4946 16.9306C16.5535 16.8773 16.6072 16.8186 16.6549 16.7551C17.7229 15.3544 16.1013 11.5818 12.8702 7.88487L12.7704 7.74268Z" fill="#84EEB1"/>
</g>
<defs>
<radialGradient id="paint0_radial_11616_34779" cx="0" cy="0" r="1" gradientUnits="userSpaceOnUse" gradientTransform="translate(12.2739 1.57635) rotate(-2.29061) scale(43.5541 32.2308)">
<stop stop-color="#03BA50"/>
<stop offset="0.8" stop-color="#01B64E"/>
</radialGradient>
<radialGradient id="paint1_radial_11616_34779" cx="0" cy="0" r="1" gradientUnits="userSpaceOnUse" gradientTransform="translate(12.2694 1.57292) rotate(-2.29061) scale(43.4633 32.1636)">
<stop stop-color="#04BC50"/>
<stop offset="0.8" stop-color="#01B34D"/>
</radialGradient>
<radialGradient id="paint2_radial_11616_34779" cx="0" cy="0" r="1" gradientUnits="userSpaceOnUse" gradientTransform="translate(12.2591 1.58097) rotate(-2.29061) scale(43.3725 32.0963)">
<stop stop-color="#06BD51"/>
<stop offset="0.72" stop-color="#02B24C"/>
<stop offset="0.8" stop-color="#01B04B"/>
</radialGradient>
<radialGradient id="paint3_radial_11616_34779" cx="0" cy="0" r="1" gradientUnits="userSpaceOnUse" gradientTransform="translate(12.2429 1.59479) rotate(-2.29061) scale(43.2817 32.0291)">
<stop stop-color="#08BF52"/>
<stop offset="0.56" stop-color="#04B44D"/>
<stop offset="0.8" stop-color="#01AD4A"/>
</radialGradient>
<radialGradient id="paint4_radial_11616_34779" cx="0" cy="0" r="1" gradientUnits="userSpaceOnUse" gradientTransform="translate(12.2265 1.60797) rotate(-2.29061) scale(43.1908 31.9619)">
<stop stop-color="#0AC053"/>
<stop offset="0.48" stop-color="#05B54E"/>
<stop offset="0.8" stop-color="#01AA49"/>
</radialGradient>
<radialGradient id="paint5_radial_11616_34779" cx="0" cy="0" r="1" gradientUnits="userSpaceOnUse" gradientTransform="translate(12.2074 1.64058) rotate(-1.71836) scale(43.0819 31.8907)">
<stop stop-color="#0BC253"/>
<stop offset="0.42" stop-color="#07B74E"/>
<stop offset="0.8" stop-color="#01A848"/>
</radialGradient>
<radialGradient id="paint6_radial_11616_34779" cx="0" cy="0" r="1" gradientUnits="userSpaceOnUse" gradientTransform="translate(12.1823 1.64874) rotate(-1.71836) scale(42.9911 31.8234)">
<stop stop-color="#0DC354"/>
<stop offset="0.37" stop-color="#08B84F"/>
<stop offset="0.8" stop-color="#01A546"/>
</radialGradient>
<radialGradient id="paint7_radial_11616_34779" cx="0" cy="0" r="1" gradientUnits="userSpaceOnUse" gradientTransform="translate(12.5018 1.65726) rotate(-1.71836) scale(42.9003 31.7434)">
<stop stop-color="#0FC555"/>
<stop offset="0.33" stop-color="#0ABA50"/>
<stop offset="0.8" stop-color="#01A245"/>
</radialGradient>
<radialGradient id="paint8_radial_11616_34779" cx="0" cy="0" r="1" gradientUnits="userSpaceOnUse" gradientTransform="translate(12.47 1.67274) rotate(-1.70135) scale(43.2372 31.6762)">
<stop stop-color="#11C656"/>
<stop offset="0.3" stop-color="#0CBB51"/>
<stop offset="0.8" stop-color="#019F44"/>
</radialGradient>
<radialGradient id="paint9_radial_11616_34779" cx="0" cy="0" r="1" gradientUnits="userSpaceOnUse" gradientTransform="translate(12.4593 1.68817) rotate(-1.70135) scale(43.1455 31.609)">
<stop stop-color="#12C856"/>
<stop offset="0.28" stop-color="#0EBD51"/>
<stop offset="0.77" stop-color="#029E44"/>
<stop offset="0.8" stop-color="#019C43"/>
</radialGradient>
<radialGradient id="paint10_radial_11616_34779" cx="0" cy="0" r="1" gradientUnits="userSpaceOnUse" gradientTransform="translate(12.4488 1.70897) rotate(-1.70135) scale(43.0507 31.5396)">
<stop stop-color="#14C957"/>
<stop offset="0.26" stop-color="#0FBE52"/>
<stop offset="0.72" stop-color="#049F44"/>
<stop offset="0.8" stop-color="#019941"/>
</radialGradient>
<radialGradient id="paint11_radial_11616_34779" cx="0" cy="0" r="1" gradientUnits="userSpaceOnUse" gradientTransform="translate(12.4291 1.73487) rotate(-1.70136) scale(42.959 31.4724)">
<stop stop-color="#16CB58"/>
<stop offset="0.24" stop-color="#11C053"/>
<stop offset="0.66" stop-color="#06A145"/>
<stop offset="0.8" stop-color="#019640"/>
</radialGradient>
<radialGradient id="paint12_radial_11616_34779" cx="0" cy="0" r="1" gradientUnits="userSpaceOnUse" gradientTransform="translate(12.4064 1.76282) rotate(-1.70135) scale(42.8673 31.4053)">
<stop stop-color="#18CC59"/>
<stop offset="0.23" stop-color="#13C154"/>
<stop offset="0.62" stop-color="#07A246"/>
<stop offset="0.8" stop-color="#01933F"/>
</radialGradient>
<radialGradient id="paint13_radial_11616_34779" cx="0" cy="0" r="1" gradientUnits="userSpaceOnUse" gradientTransform="translate(12.3837 1.79616) rotate(-1.70135) scale(42.7725 31.3358)">
<stop stop-color="#19CD59"/>
<stop offset="0.21" stop-color="#15C254"/>
<stop offset="0.59" stop-color="#09A347"/>
<stop offset="0.8" stop-color="#01903E"/>
</radialGradient>
<radialGradient id="paint14_radial_11616_34779" cx="0" cy="0" r="1" gradientUnits="userSpaceOnUse" gradientTransform="translate(12.355 1.83223) rotate(-1.70135) scale(42.6809 31.2686)">
<stop stop-color="#1BCF5A"/>
<stop offset="0.2" stop-color="#17C455"/>
<stop offset="0.56" stop-color="#0BA547"/>
<stop offset="0.8" stop-color="#018D3C"/>
</radialGradient>
<radialGradient id="paint15_radial_11616_34779" cx="0" cy="0" r="1" gradientUnits="userSpaceOnUse" gradientTransform="translate(12.3233 1.70071) rotate(-1.13442) scale(42.5787 31.2007)">
<stop stop-color="#1DD05B"/>
<stop offset="0.19" stop-color="#18C556"/>
<stop offset="0.54" stop-color="#0CA648"/>
<stop offset="0.8" stop-color="#018B3B"/>
</radialGradient>
<radialGradient id="paint16_radial_11616_34779" cx="0" cy="0" r="1" gradientUnits="userSpaceOnUse" gradientTransform="translate(12.2887 1.72814) rotate(-1.13442) scale(42.4839 31.1313)">
<stop stop-color="#1ED25B"/>
<stop offset="0.18" stop-color="#1AC756"/>
<stop offset="0.51" stop-color="#0EA848"/>
<stop offset="0.8" stop-color="#01883A"/>
</radialGradient>
<radialGradient id="paint17_radial_11616_34779" cx="0" cy="0" r="1" gradientUnits="userSpaceOnUse" gradientTransform="translate(12.2541 1.75471) rotate(-1.13442) scale(42.3923 31.0641)">
<stop stop-color="#20D35C"/>
<stop offset="0.18" stop-color="#1BC857"/>
<stop offset="0.49" stop-color="#0FA949"/>
<stop offset="0.8" stop-color="#018539"/>
</radialGradient>
<radialGradient id="paint18_radial_11616_34779" cx="0" cy="0" r="1" gradientUnits="userSpaceOnUse" gradientTransform="translate(12.2133 1.79179) rotate(-1.13442) scale(42.3006 30.9969)">
<stop stop-color="#22D55D"/>
<stop offset="0.17" stop-color="#1DCA58"/>
<stop offset="0.47" stop-color="#11AB4A"/>
<stop offset="0.8" stop-color="#018237"/>
</radialGradient>
<radialGradient id="paint19_radial_11616_34779" cx="0" cy="0" r="1" gradientUnits="userSpaceOnUse" gradientTransform="translate(12.1665 1.82627) rotate(-1.13442) scale(42.2058 30.9275)">
<stop stop-color="#24D65E"/>
<stop offset="0.16" stop-color="#1FCB59"/>
<stop offset="0.45" stop-color="#13AC4B"/>
<stop offset="0.8" stop-color="#017F36"/>
</radialGradient>
<radialGradient id="paint20_radial_11616_34779" cx="0" cy="0" r="1" gradientUnits="userSpaceOnUse" gradientTransform="translate(12.1167 1.86822) rotate(-1.13442) scale(42.1142 30.8604)">
<stop stop-color="#25D85E"/>
<stop offset="0.15" stop-color="#20CD59"/>
<stop offset="0.43" stop-color="#14AE4B"/>
<stop offset="0.79" stop-color="#017D36"/>
<stop offset="0.8" stop-color="#007C35"/>
</radialGradient>
<radialGradient id="paint21_radial_11616_34779" cx="0" cy="0" r="1" gradientUnits="userSpaceOnUse" gradientTransform="translate(13.0324 1.91562) rotate(-1.13442) scale(42.0225 30.7849)">
<stop stop-color="#27D95F"/>
<stop offset="0.15" stop-color="#22CE5A"/>
<stop offset="0.42" stop-color="#16AF4C"/>
<stop offset="0.77" stop-color="#027E36"/>
<stop offset="0.8" stop-color="#007934"/>
</radialGradient>
<radialGradient id="paint22_radial_11616_34779" cx="0" cy="0" r="1" gradientUnits="userSpaceOnUse" gradientTransform="translate(12.7194 1.96454) rotate(-1.1233) scale(42.3427 30.7156)">
<stop stop-color="#29DB60"/>
<stop offset="0.14" stop-color="#24D05B"/>
<stop offset="0.4" stop-color="#18B14D"/>
<stop offset="0.74" stop-color="#048037"/>
<stop offset="0.8" stop-color="#007632"/>
</radialGradient>
<radialGradient id="paint23_radial_11616_34779" cx="0" cy="0" r="1" gradientUnits="userSpaceOnUse" gradientTransform="translate(12.6824 2.01887) rotate(-1.1233) scale(42.2501 30.6484)">
<stop stop-color="#2BDC61"/>
<stop offset="0.14" stop-color="#26D15C"/>
<stop offset="0.39" stop-color="#1AB24E"/>
<stop offset="0.71" stop-color="#068138"/>
<stop offset="0.8" stop-color="#007331"/>
</radialGradient>
<radialGradient id="paint24_radial_11616_34779" cx="0" cy="0" r="1" gradientUnits="userSpaceOnUse" gradientTransform="translate(12.6455 2.07853) rotate(-1.1233) scale(42.1545 30.579)">
<stop stop-color="#2CDE61"/>
<stop offset="0.13" stop-color="#27D35C"/>
<stop offset="0.37" stop-color="#1BB44E"/>
<stop offset="0.69" stop-color="#088339"/>
<stop offset="0.8" stop-color="#007030"/>
</radialGradient>
<radialGradient id="paint25_radial_11616_34779" cx="0" cy="0" r="1" gradientUnits="userSpaceOnUse" gradientTransform="translate(12.6054 1.77564) rotate(-0.561705) scale(42.0558 30.5122)">
<stop stop-color="#2EDF62"/>
<stop offset="0.13" stop-color="#29D45D"/>
<stop offset="0.37" stop-color="#1DB54F"/>
<stop offset="0.67" stop-color="#098439"/>
<stop offset="0.8" stop-color="#006E2F"/>
</radialGradient>
<radialGradient id="paint26_radial_11616_34779" cx="0" cy="0" r="1" gradientUnits="userSpaceOnUse" gradientTransform="translate(12.5591 1.82302) rotate(-0.561705) scale(41.9632 30.445)">
<stop stop-color="#30E163"/>
<stop offset="0.13" stop-color="#2BD65E"/>
<stop offset="0.35" stop-color="#1FB750"/>
<stop offset="0.65" stop-color="#0B8639"/>
<stop offset="0.8" stop-color="#006B2D"/>
</radialGradient>
<radialGradient id="paint27_radial_11616_34779" cx="0" cy="0" r="1" gradientUnits="userSpaceOnUse" gradientTransform="translate(12.5128 1.87556) rotate(-0.561705) scale(41.8675 30.3756)">
<stop stop-color="#31E263"/>
<stop offset="0.12" stop-color="#2CD75E"/>
<stop offset="0.34" stop-color="#20B850"/>
<stop offset="0.63" stop-color="#0D873A"/>
<stop offset="0.8" stop-color="#00682C"/>
</radialGradient>
<radialGradient id="paint28_radial_11616_34779" cx="0" cy="0" r="1" gradientUnits="userSpaceOnUse" gradientTransform="translate(12.4604 1.93044) rotate(-0.561705) scale(41.775 30.3084)">
<stop stop-color="#33E364"/>
<stop offset="0.12" stop-color="#2ED85F"/>
<stop offset="0.34" stop-color="#22B951"/>
<stop offset="0.62" stop-color="#0E883B"/>
<stop offset="0.8" stop-color="#00652B"/>
</radialGradient>
<radialGradient id="paint29_radial_11616_34779" cx="0" cy="0" r="1" gradientUnits="userSpaceOnUse" gradientTransform="translate(12.405 1.99004) rotate(-0.561705) scale(41.6793 30.239)">
<stop stop-color="#35E565"/>
<stop offset="0.12" stop-color="#30DA60"/>
<stop offset="0.33" stop-color="#24BB52"/>
<stop offset="0.6" stop-color="#108A3C"/>
<stop offset="0.8" stop-color="#00622A"/>
</radialGradient>
<radialGradient id="paint30_radial_11616_34779" cx="0" cy="0" r="1" gradientUnits="userSpaceOnUse" gradientTransform="translate(12.3495 2.05174) rotate(-0.561705) scale(41.5867 30.1718)">
<stop stop-color="#37E666"/>
<stop offset="0.11" stop-color="#32DB61"/>
<stop offset="0.32" stop-color="#26BC53"/>
<stop offset="0.59" stop-color="#128B3C"/>
<stop offset="0.8" stop-color="#005F28"/>
</radialGradient>
<radialGradient id="paint31_radial_11616_34779" cx="0" cy="0" r="1" gradientUnits="userSpaceOnUse" gradientTransform="translate(12.2876 2.11904) rotate(-0.561705) scale(41.4911 30.1024)">
<stop stop-color="#38E866"/>
<stop offset="0.11" stop-color="#33DD61"/>
<stop offset="0.31" stop-color="#27BE53"/>
<stop offset="0.57" stop-color="#148D3D"/>
<stop offset="0.8" stop-color="#005C27"/>
</radialGradient>
<radialGradient id="paint32_radial_11616_34779" cx="0" cy="0" r="1" gradientUnits="userSpaceOnUse" gradientTransform="translate(12.223 2.19039) rotate(-0.561705) scale(41.3985 30.0353)">
<stop stop-color="#3AE967"/>
<stop offset="0.11" stop-color="#35DE62"/>
<stop offset="0.3" stop-color="#29BF54"/>
<stop offset="0.56" stop-color="#158E3E"/>
<stop offset="0.8" stop-color="#005926"/>
</radialGradient>
<radialGradient id="paint33_radial_11616_34779" cx="0" cy="0" r="1" gradientUnits="userSpaceOnUse" gradientTransform="translate(12.1581 2.26447) rotate(-0.561705) scale(41.3059 29.9681)">
<stop stop-color="#3CEB68"/>
<stop offset="0.11" stop-color="#37E063"/>
<stop offset="0.29" stop-color="#2BC155"/>
<stop offset="0.54" stop-color="#17903F"/>
<stop offset="0.8" stop-color="#005625"/>
</radialGradient>
<radialGradient id="paint34_radial_11616_34779" cx="0" cy="0" r="1" gradientUnits="userSpaceOnUse" gradientTransform="translate(12.084 2.34369) rotate(-0.561705) scale(41.2102 29.8987)">
<stop stop-color="#3EEC69"/>
<stop offset="0.1" stop-color="#39E164"/>
<stop offset="0.29" stop-color="#2DC256"/>
<stop offset="0.53" stop-color="#19913F"/>
<stop offset="0.8" stop-color="#005323"/>
</radialGradient>
<radialGradient id="paint35_radial_11616_34779" cx="0" cy="0" r="1" gradientUnits="userSpaceOnUse" gradientTransform="translate(12.0099 1.87288) scale(41.1157 29.829)">
<stop stop-color="#3FEE69"/>
<stop offset="0.1" stop-color="#3AE364"/>
<stop offset="0.28" stop-color="#2EC456"/>
<stop offset="0.52" stop-color="#1A9340"/>
<stop offset="0.8" stop-color="#005122"/>
</radialGradient>
<radialGradient id="paint36_radial_11616_34779" cx="0" cy="0" r="1" gradientUnits="userSpaceOnUse" gradientTransform="translate(12.9805 1.93923) scale(41.4222 29.7596)">
<stop stop-color="#41EF6A"/>
<stop offset="0.1" stop-color="#3CE465"/>
<stop offset="0.28" stop-color="#30C557"/>
<stop offset="0.51" stop-color="#1C9441"/>
<stop offset="0.79" stop-color="#015022"/>
<stop offset="0.8" stop-color="#004E21"/>
</radialGradient>
<radialGradient id="paint37_radial_11616_34779" cx="0" cy="0" r="1" gradientUnits="userSpaceOnUse" gradientTransform="translate(12.9206 2.01046) scale(41.3318 29.6947)">
<stop stop-color="#43F16B"/>
<stop offset="0.1" stop-color="#3EE666"/>
<stop offset="0.27" stop-color="#32C758"/>
<stop offset="0.5" stop-color="#1E9642"/>
<stop offset="0.77" stop-color="#035223"/>
<stop offset="0.8" stop-color="#004B20"/>
</radialGradient>
<radialGradient id="paint38_radial_11616_34779" cx="0" cy="0" r="1" gradientUnits="userSpaceOnUse" gradientTransform="translate(12.8639 2.08641) scale(41.2383 29.6275)">
<stop stop-color="#45F26C"/>
<stop offset="0.1" stop-color="#40E767"/>
<stop offset="0.27" stop-color="#34C859"/>
<stop offset="0.49" stop-color="#209742"/>
<stop offset="0.76" stop-color="#055323"/>
<stop offset="0.8" stop-color="#00481E"/>
</radialGradient>
<radialGradient id="paint39_radial_11616_34779" cx="0" cy="0" r="1" gradientUnits="userSpaceOnUse" gradientTransform="translate(12.8041 2.16781) scale(41.1417 29.5581)">
<stop stop-color="#46F46C"/>
<stop offset="0.09" stop-color="#41E967"/>
<stop offset="0.26" stop-color="#35CA59"/>
<stop offset="0.48" stop-color="#229943"/>
<stop offset="0.74" stop-color="#065524"/>
<stop offset="0.8" stop-color="#00451D"/>
</radialGradient>
<radialGradient id="paint40_radial_11616_34779" cx="0" cy="0" r="1" gradientUnits="userSpaceOnUse" gradientTransform="translate(12.7471 2.25335) scale(41.0451 29.4887)">
<stop stop-color="#48F56D"/>
<stop offset="0.09" stop-color="#43EA68"/>
<stop offset="0.25" stop-color="#37CB5A"/>
<stop offset="0.47" stop-color="#239A44"/>
<stop offset="0.73" stop-color="#085625"/>
<stop offset="0.8" stop-color="#00421C"/>
</radialGradient>
<linearGradient id="paint41_linear_11616_34779" x1="13.4148" y1="23.4562" x2="9.87518" y2="-1.92634" gradientUnits="userSpaceOnUse">
<stop offset="0.1" stop-color="#FF8475"/>
<stop offset="0.37" stop-color="#E84E43"/>
<stop offset="0.6" stop-color="#D6261F"/>
<stop offset="0.79" stop-color="#CC0E08"/>
<stop offset="0.9" stop-color="#C80500"/>
</linearGradient>
<clipPath id="clip0_11616_34779">
<rect width="19" height="19" fill="white" transform="translate(0.333313 0.5)"/>
</clipPath>
</defs>
</svg>
