<svg width="95" height="20" viewBox="0 0 133 28" fill="none" xmlns="http://www.w3.org/2000/svg">
<rect width="28" height="28" rx="14" fill="#FC3F1D"/>
<path d="M15.9733 22.414H18.8982V5.61401H14.6439C10.3653 5.61401 8.11723 7.81373 8.11723 11.0529C8.11723 13.6393 9.35004 15.1622 11.5497 16.7334L7.73047 22.414H10.8971L15.1515 16.0566L13.6769 15.0655C11.8882 13.8569 11.018 12.9142 11.018 10.8837C11.018 9.09488 12.2749 7.88624 14.668 7.88624H15.9733V22.414Z" fill="white"/>
<g clip-path="url(#clip0_351_72416)">
<path d="M44.0449 14.0671L53.8801 24.1386L53.6794 24.3214L53.5947 24.4017C50.8408 26.8582 47.2322 28.1348 43.5461 27.9567C39.8601 27.7786 36.3914 26.1599 33.8872 23.4493C31.3829 20.7387 30.0434 17.153 30.1571 13.4644C30.2708 9.7758 31.8286 6.2794 34.495 3.72816C37.2365 1.21933 40.8561 -0.10838 44.5696 0.0326493C48.2831 0.173679 51.7915 1.77209 54.3348 4.48163L44.0449 14.0671Z" fill="#01B94F"/>
<path d="M34.5034 3.72376C37.2445 1.21713 40.8627 -0.108839 44.5744 0.0330202C48.2861 0.174879 51.7925 1.77315 54.3343 4.48169C54.3343 4.48169 46.1532 12.1412 45.9882 12.2749C45.9882 12.2749 44.1558 14.0003 44.1692 14.0271C44.1826 14.0538 53.8617 24.0986 53.8617 24.0986L53.6655 24.2858L53.5808 24.3661C47.8028 29.4486 38.9484 29.2168 33.7188 23.5636C31.2073 20.8212 29.8807 17.1979 30.0276 13.4822C30.1746 9.76646 31.7832 6.25921 34.5034 3.72376Z" fill="url(#paint0_radial_351_72416)"/>
<path d="M34.5077 3.71483C37.251 1.2115 40.8694 -0.111452 44.5804 0.03205C48.2914 0.175552 51.7968 1.77397 54.3386 4.48167C54.3386 4.48167 46.3759 11.9717 46.0504 12.2348C46.0504 12.2348 44.2671 13.9379 44.2983 13.9914C44.3652 14.1519 53.8481 24.054 53.8481 24.054L53.652 24.2412L53.5673 24.3215C47.8026 29.3951 38.9438 29.1454 33.732 23.51C31.2243 20.7752 29.8987 17.1603 30.044 13.4527C30.1893 9.74506 31.7937 6.245 34.5077 3.71483Z" fill="url(#paint1_radial_351_72416)"/>
<path d="M34.5173 3.71034C37.2607 1.2103 40.8774 -0.110181 44.5863 0.0341358C48.2951 0.178453 51.7984 1.77599 54.3392 4.48164C54.3392 4.48164 46.6039 11.7978 46.1046 12.1946C46.1046 12.1946 44.3837 13.871 44.4149 13.9512C44.5174 14.192 53.831 24.0138 53.831 24.0138L53.6303 24.2011L53.5456 24.2768C47.7988 29.3371 38.9444 29.0785 33.7415 23.4565C31.2379 20.7294 29.9143 17.1228 30.0596 13.4235C30.205 9.7243 31.8074 6.23265 34.5173 3.71034Z" fill="url(#paint2_radial_351_72416)"/>
<path d="M34.5212 3.70586C37.2649 1.20774 40.881 -0.111121 44.5888 0.0340203C48.2966 0.179162 51.7986 1.77666 54.3387 4.48162C54.3387 4.48162 46.8263 11.615 46.162 12.1545C46.162 12.1545 44.4946 13.8086 44.5391 13.9156C44.6729 14.2366 53.8126 23.9737 53.8126 23.9737L53.6164 24.1565C53.6164 24.1565 53.5317 24.2323 53.5317 24.2367C47.7982 29.2791 38.9439 29.0027 33.7543 23.403C31.2547 20.6842 29.9323 17.0868 30.076 13.3963C30.2197 9.70583 31.8177 6.22212 34.5212 3.70586Z" fill="url(#paint3_radial_351_72416)"/>
<path d="M34.5298 3.69713C37.2742 1.20286 40.8891 -0.112755 44.5947 0.0340361C48.3004 0.180827 51.7998 1.77826 54.3384 4.4818C54.3384 4.4818 47.0534 11.4547 46.2197 12.1145C46.2197 12.1145 44.6057 13.7419 44.6592 13.8756C44.8287 14.2769 53.7989 23.9293 53.7945 23.9337L53.5983 24.1165L53.5136 24.1968C47.7935 29.2169 38.9436 28.936 33.7674 23.3497C31.2721 20.6378 29.9516 17.0485 30.0945 13.3661C30.2373 9.6837 31.8319 6.20751 34.5298 3.69713Z" fill="url(#paint4_radial_351_72416)"/>
<path d="M34.5351 3.69265C37.2799 1.2003 40.8941 -0.113692 44.5987 0.0339232C48.3033 0.181539 51.8015 1.77894 54.3393 4.48178C54.3393 4.48178 47.2772 11.2853 46.2785 12.061C46.2785 12.061 44.7181 13.6616 44.785 13.8221C44.9856 14.3036 53.782 23.8713 53.782 23.8713L53.5858 24.0986L53.5011 24.1744C47.7899 29.1589 38.9445 28.8691 33.7772 23.2961C31.2865 20.592 29.968 17.0116 30.11 13.338C30.252 9.6643 31.8431 6.19638 34.5351 3.69265Z" fill="url(#paint5_radial_351_72416)"/>
<path d="M34.5433 3.68817C37.2884 1.19774 40.902 -0.114629 44.6055 0.0338111C48.309 0.182251 51.806 1.77962 54.3429 4.48176C54.3429 4.48176 47.5038 11.1158 46.3402 12.061C46.3402 12.061 44.8288 13.6348 44.9046 13.8221C45.1587 14.3615 53.7678 23.8489 53.7634 23.8489L53.5672 24.0317L53.4825 24.112C47.7891 29.1009 38.9437 28.7977 33.7898 23.2426C31.3026 20.5468 29.9853 16.975 30.1265 13.3097C30.2677 9.64447 31.856 6.18463 34.5433 3.68817Z" fill="url(#paint6_radial_351_72416)"/>
<path d="M34.548 3.6792C37.294 1.19126 40.9073 -0.118712 44.6097 0.0313869C48.3122 0.181485 51.8076 1.77964 54.3432 4.4817C54.3432 4.4817 47.727 10.9419 46.3984 11.9985C46.3984 11.9985 44.9405 13.55 45.0296 13.7819C45.2971 14.4239 53.7502 23.8266 53.7458 23.8266C53.7413 23.8266 53.563 24.0005 53.5496 24.0094L53.4649 24.0852C47.7849 29.0429 38.9395 28.7308 33.799 23.2069C31.3095 20.5177 29.9898 16.9499 30.1303 13.288C30.2707 9.62602 31.8598 6.16977 34.548 3.6792Z" fill="url(#paint7_radial_351_72416)"/>
<path d="M34.5571 3.67474C37.3033 1.19008 40.9149 -0.117433 44.6152 0.0334797C48.3155 0.184392 51.8087 1.78167 54.3434 4.4817C54.3434 4.4817 47.9545 10.7725 46.4565 11.9584C46.4565 11.9584 45.0521 13.4832 45.1547 13.7418C45.4534 14.464 53.7326 23.782 53.7326 23.7865L53.5364 23.9693L53.4517 24.0451C47.7851 29.0028 38.9397 28.6773 33.8349 23.1534C31.3482 20.4743 30.0274 16.9173 30.1628 13.2645C30.2982 9.61175 31.8789 6.16232 34.5571 3.67474Z" fill="url(#paint8_radial_351_72416)"/>
<path d="M34.5609 3.67027C37.3074 1.18752 40.9185 -0.118366 44.6177 0.0333709C48.3169 0.185108 51.8089 1.78235 54.3428 4.48169C54.3428 4.48169 48.1768 10.5986 46.496 11.9183C46.496 11.9183 45.1585 13.4207 45.2566 13.7016C45.6044 14.4907 53.7186 23.724 53.7141 23.7285L53.518 23.9068C53.518 23.9068 53.4422 23.9782 53.4333 23.9871C47.78 28.927 38.9391 28.5881 33.8164 23.0954C32.5897 21.7711 31.636 20.2181 31.0095 18.5252C30.3831 16.8322 30.0962 15.0324 30.1654 13.2286C30.2345 11.4248 30.6583 9.65229 31.4125 8.01226C32.1667 6.37222 33.2365 4.89681 34.5609 3.67027Z" fill="url(#paint9_radial_351_72416)"/>
<path d="M34.5706 3.66133C37.3177 1.18243 40.9275 -0.120229 44.6246 0.0331559C48.3217 0.18654 51.8111 1.78373 54.3435 4.48167C54.3435 4.48167 48.4049 10.4291 46.5725 11.8781C46.5725 11.8781 45.2752 13.3583 45.4 13.6615C45.7656 14.5532 53.7015 23.6973 53.7015 23.7017L53.5053 23.8801L53.4206 23.9559C47.7763 28.869 38.9398 28.5213 33.835 23.033C31.3641 20.3664 30.0536 16.8276 30.1915 13.1948C30.3295 9.56209 31.9046 6.13287 34.5706 3.66133Z" fill="url(#paint10_radial_351_72416)"/>
<path d="M34.5751 3.65702C37.3233 1.17976 40.9332 -0.1214 44.6299 0.0328038C48.3266 0.187008 51.8156 1.78429 54.348 4.48182C54.348 4.48182 48.6279 10.2777 46.6305 11.8426C46.6305 11.8426 45.3911 13.2916 45.5204 13.626C45.9216 14.5756 53.6881 23.6529 53.6837 23.6529L53.4875 23.8356L53.4028 23.9114C47.7763 28.8157 38.9398 28.459 33.8483 22.9886C32.6256 21.6721 31.6743 20.1275 31.049 18.4431C30.4236 16.7587 30.1365 14.9676 30.204 13.1721C30.2715 11.3767 30.6923 9.61213 31.4423 7.97944C32.1923 6.34675 33.2569 4.87794 34.5751 3.65702Z" fill="url(#paint11_radial_351_72416)"/>
<path d="M34.5836 3.65233C37.3319 1.17834 40.9402 -0.12036 44.6347 0.034657C48.3293 0.189675 51.8161 1.78607 54.3476 4.48159C54.3476 4.48159 48.8548 10.0858 46.6881 11.8022C46.6881 11.8022 45.5021 13.2289 45.6448 13.5856C46.0906 14.6289 53.6699 23.6125 53.6699 23.617L53.4737 23.7997C53.4737 23.7997 53.3979 23.8666 53.3935 23.8755C47.7759 28.7798 38.9439 28.3919 33.8613 22.9393C28.7787 17.4867 29.0329 8.68584 34.5836 3.65233Z" fill="url(#paint12_radial_351_72416)"/>
<path d="M34.5878 3.64339C37.3371 1.17188 40.945 -0.124429 44.6386 0.0322458C48.3321 0.18892 51.8173 1.78611 54.3474 4.48156C54.3474 4.48156 49.0776 9.90741 46.7681 11.7532C46.7681 11.7532 45.6312 13.1531 45.7873 13.5365C46.2554 14.66 53.6697 23.559 53.6697 23.5634L53.4735 23.7418L53.3888 23.8175C47.7668 28.6905 38.9169 28.3116 33.87 22.8724C28.8232 17.4331 29.0505 8.66352 34.5878 3.64339Z" fill="url(#paint13_radial_351_72416)"/>
<path d="M34.5968 3.63896C37.3461 1.17072 40.9525 -0.123142 44.6439 0.0343458C48.3352 0.191833 51.8183 1.78815 54.3474 4.48159C54.3474 4.48159 49.305 9.74247 46.8083 11.722C46.8083 11.722 45.7249 13.0996 45.8899 13.5053C46.3937 14.7046 53.6296 23.5189 53.6296 23.5233L53.4334 23.7017L53.3487 23.7774C47.7668 28.6326 38.917 28.2403 33.879 22.8189C28.841 17.3975 29.0684 8.64126 34.5968 3.63896Z" fill="url(#paint14_radial_351_72416)"/>
<path d="M34.6012 3.6345C37.3509 1.16818 40.9566 -0.124067 44.6469 0.0342438C48.3372 0.192555 51.819 1.78885 54.3474 4.48159C54.3474 4.48159 49.5278 9.57306 46.8662 11.6819C46.8662 11.6819 45.8363 13.0194 46.0146 13.4652C46.5496 14.7359 53.6296 23.4787 53.6296 23.4832L53.4378 23.6615L53.3531 23.7373C47.7623 28.5568 38.9169 28.1734 33.8923 22.7609C28.8677 17.3485 29.0817 8.62343 34.6012 3.6345Z" fill="url(#paint15_radial_351_72416)"/>
<path d="M34.6106 3.6257C37.3622 1.16401 40.9672 -0.124428 44.6557 0.0355094C48.3443 0.195447 51.8242 1.79108 54.3523 4.48171C54.3523 4.48171 49.7557 9.38593 46.9425 11.6419C46.9425 11.6419 45.9661 12.9794 46.1534 13.4252C46.7062 14.7895 53.6301 23.4343 53.6033 23.4387L53.4072 23.6171C53.3811 23.6446 53.3527 23.67 53.3224 23.6929C47.7629 28.5168 38.9174 28.1111 33.9062 22.712C28.895 17.3129 29.109 8.60126 34.6106 3.6257Z" fill="url(#paint16_radial_351_72416)"/>
<path d="M34.6152 3.62131C37.37 1.16331 40.9771 -0.119492 44.6654 0.0471338C48.3537 0.213759 51.8304 1.81659 54.3524 4.51298C54.3524 4.51298 49.9787 9.22995 46.9827 11.6152C46.9827 11.6152 46.0598 12.917 46.2605 13.3985C46.8623 14.8475 53.59 23.412 53.5856 23.4165C53.5811 23.421 53.4206 23.5725 53.3894 23.5948L53.3092 23.6706C47.7585 28.4589 38.9175 28.0309 33.9152 22.6586C28.9129 17.2862 29.1091 8.57902 34.6152 3.62131Z" fill="url(#paint17_radial_351_72416)"/>
<path d="M34.6233 3.61678C37.3772 1.16041 40.9826 -0.12143 44.669 0.0451891C48.3555 0.211808 51.8306 1.81367 54.3516 4.50846C54.3516 4.50846 50.2053 9.06938 47.0399 11.5794C47.0399 11.5794 46.1705 12.8545 46.38 13.3628C47.0176 14.892 53.5759 23.3719 53.567 23.3763L53.3752 23.5546L53.2905 23.6304C47.7532 28.4009 38.9167 27.964 33.9278 22.605C28.9389 17.246 29.1306 8.55667 34.6233 3.61678Z" fill="url(#paint18_radial_351_72416)"/>
<path d="M34.6283 3.58991C37.3824 1.13596 40.9866 -0.144342 44.6716 0.0222509C48.3567 0.188844 51.8306 1.78914 54.3521 4.48158C54.3521 4.48158 50.4288 8.87309 47.1028 11.5124C47.1028 11.5124 46.2825 12.7608 46.5054 13.2958C47.1742 14.9053 53.5585 23.3049 53.5541 23.3093L53.3579 23.4877L53.2732 23.559C47.7537 28.3428 38.9172 27.8925 33.9372 22.5559C28.9572 17.2192 29.1489 8.53425 34.6283 3.58991Z" fill="url(#paint19_radial_351_72416)"/>
<path d="M34.6367 3.59002C37.3898 1.1377 40.9923 -0.141641 44.6756 0.024945C48.3588 0.191531 51.8311 1.79086 54.3516 4.4817C52.1351 6.99494 49.7311 9.33637 47.1603 11.4858C47.1603 11.4858 46.3934 12.7119 46.6297 13.2692C47.3297 14.9589 53.5402 23.2693 53.5357 23.2782L53.344 23.4521L53.2593 23.5279C47.7488 28.285 38.9167 27.8258 33.9501 22.5025C28.9835 17.1792 29.1618 8.49424 34.6367 3.59002Z" fill="url(#paint20_radial_351_72416)"/>
<path d="M34.6417 3.58997C37.3953 1.13872 40.9976 -0.139912 44.6805 0.0266585C48.3633 0.193229 51.8355 1.79183 54.3566 4.48165C52.1711 6.98802 49.7855 9.31255 47.2232 11.4323C47.2232 11.4323 46.5143 12.6316 46.7774 13.2156C47.513 14.999 53.5541 23.2157 53.5452 23.2202L53.3535 23.3985L53.2688 23.4743C47.7493 28.2225 38.9172 27.7544 33.9595 22.4489C29.0018 17.1434 29.1801 8.49418 34.6417 3.58997Z" fill="url(#paint21_radial_351_72416)"/>
<path d="M34.6501 3.58999C37.4037 1.14252 41.0038 -0.133754 44.6842 0.0327796C48.3646 0.199313 51.8347 1.7955 54.3561 4.48167C52.205 6.98985 49.8357 9.30239 47.2762 11.3922C47.2762 11.3922 46.6208 12.5692 46.8749 13.1755C47.6418 15.0436 53.509 23.2069 53.5045 23.2069C53.5001 23.2069 53.3485 23.354 53.3084 23.3852L53.2281 23.4565C47.7443 28.1646 38.9167 27.6653 33.9724 22.3955C29.028 17.1256 29.193 8.49422 34.6501 3.58999Z" fill="url(#paint22_radial_351_72416)"/>
<path d="M34.6548 3.59003C37.4083 1.1439 41.0074 -0.131539 44.6867 0.0349833C48.366 0.201505 51.8352 1.79685 54.3564 4.48171C52.2401 6.99443 49.8888 9.29946 47.3345 11.3654C47.3345 11.3654 46.7326 12.5157 46.9956 13.1488C47.8026 15.0793 53.496 23.1445 53.487 23.1489L53.2953 23.3228L53.2106 23.3986C47.7402 28.1111 38.9171 27.6162 33.9861 22.342C29.0551 17.0677 29.2112 8.44966 34.6548 3.59003Z" fill="url(#paint23_radial_351_72416)"/>
<path d="M34.6591 3.59007C37.4123 1.14528 41.0104 -0.129324 44.6887 0.0371871C48.3669 0.203698 51.8352 1.7982 54.3562 4.48174C52.276 6.99888 49.9408 9.29381 47.3878 11.3298C47.3878 11.3298 46.8394 12.4533 47.1158 13.1132C47.954 15.1239 53.4735 23.0999 53.469 23.1089L53.2728 23.2827L53.1881 23.3585C47.74 28.0487 38.9168 27.5449 34.0126 22.2885C29.1084 17.0321 29.2288 8.42741 34.6591 3.59007Z" fill="url(#paint24_radial_351_72416)"/>
<path d="M34.6681 3.59015C37.4208 1.14806 41.017 -0.124894 44.6931 0.0415947C48.3692 0.208084 51.8356 1.8009 54.3563 4.48182C52.3151 6.99982 50.0003 9.28315 47.4547 11.2898C47.4547 11.2898 46.9554 12.391 47.2452 13.0731C48.1368 15.1641 53.4869 23.0599 53.4557 23.0688L53.264 23.2427L53.1793 23.314C47.7356 27.9908 38.9169 27.4737 34.0127 22.2351C29.1085 16.9965 29.2422 8.40519 34.6681 3.59015Z" fill="url(#paint25_radial_351_72416)"/>
<path d="M34.6724 3.59015C37.4254 1.15047 41.0204 -0.120951 44.6951 0.0455121C48.3698 0.211975 51.8351 1.80323 54.3562 4.48183C52.356 7.00529 50.0582 9.27771 47.5126 11.2496C47.5126 11.2496 47.0667 12.3241 47.3654 13.033C48.2571 15.2042 53.4467 23.0153 53.4378 23.0198C53.4288 23.0242 53.2906 23.158 53.2461 23.1937L53.1613 23.2694C47.7355 27.9329 38.9168 27.4068 34.0126 22.1816C29.1084 16.9564 29.26 8.38291 34.6724 3.59015Z" fill="url(#paint26_radial_351_72416)"/>
<path d="M34.6814 3.5634C37.4375 1.12843 41.0335 -0.137499 44.7072 0.0339497C48.3809 0.205398 51.8433 1.80075 54.3607 4.48182C54.3607 4.48182 52.2296 7.51352 47.5706 11.2095C47.5706 11.2095 47.1782 12.2617 47.4903 12.9929C48.4266 15.2221 53.4289 22.9752 53.4244 22.9796L53.2283 23.1535L53.148 23.2293C47.7311 27.8749 38.9169 27.3355 34.0127 22.1281C29.1084 16.9207 29.2734 8.36061 34.6814 3.5634Z" fill="url(#paint27_radial_351_72416)"/>
<path d="M34.6864 3.55424C37.4439 1.12281 41.0394 -0.140046 44.7117 0.0330408C48.3839 0.206128 51.8447 1.80157 54.3613 4.48158C54.3613 4.48158 52.4575 7.32603 47.6291 11.1692C47.4492 11.75 47.4492 12.3717 47.6291 12.9525C48.601 15.2842 53.425 22.9259 53.425 22.9348L53.2333 23.1087L53.1486 23.18C47.7272 27.8167 38.9174 27.2684 34.0444 22.0788C29.1714 16.8893 29.2918 8.34254 34.6864 3.55424Z" fill="url(#paint28_radial_351_72416)"/>
<path d="M34.6954 3.54994C37.452 1.11963 41.0463 -0.142197 44.7171 0.0317314C48.3879 0.20566 51.8469 1.80168 54.3613 4.48174C54.3613 4.48174 52.6805 7.15677 47.6737 11.1114C47.5162 11.6979 47.5333 12.3177 47.7228 12.8947C48.7259 15.3379 53.3983 22.8993 53.3894 22.9082L53.1977 23.0821L53.1174 23.1534C47.7272 27.7589 38.9175 27.2195 34.0534 22.0255C29.1893 16.8315 29.3097 8.32041 34.6954 3.54994Z" fill="url(#paint29_radial_351_72416)"/>
<path d="M34.7 3.54528C37.4569 1.11688 41.0506 -0.143347 44.7204 0.0314022C48.3901 0.206152 51.8478 1.80216 54.3615 4.48154C54.3615 4.48154 52.908 7.00052 47.7452 11.0933C47.621 11.687 47.6595 12.3031 47.8567 12.8767C48.8955 15.3689 53.3851 22.8456 53.3762 22.8545L53.1844 23.0239L53.0997 23.0997C47.7229 27.7008 38.9176 27.1256 34.0669 21.9718C29.1404 16.7465 29.3232 8.29791 34.7 3.54528Z" fill="url(#paint30_radial_351_72416)"/>
<path d="M34.7084 3.53668C37.4664 1.11314 41.0586 -0.143183 44.7259 0.033193C48.3931 0.209569 51.8482 1.80483 54.3609 4.48186C54.3609 4.48186 53.1304 6.81359 47.8026 11.0357C47.7107 11.6356 47.772 12.2491 47.981 12.819C49.051 15.3915 53.3667 22.788 53.3578 22.7924L53.1661 22.9663L53.0813 23.0376C47.7313 27.6075 38.926 27.0502 34.0753 21.8874C29.2246 16.7246 29.3405 8.27594 34.7084 3.53668Z" fill="url(#paint31_radial_351_72416)"/>
<path d="M34.7128 3.53195C37.4718 1.11004 41.0641 -0.144816 44.7311 0.0323759C48.3981 0.209568 51.8526 1.80494 54.3653 4.48159C54.3653 4.48159 53.3577 6.63944 47.865 10.9953C47.8048 11.6004 47.8873 12.2111 48.1057 12.7786C49.207 15.467 53.3488 22.7609 53.3399 22.7832L53.1482 22.9571L53.0679 23.0284C47.7179 27.5804 38.917 26.9875 34.0886 21.8693C29.1844 16.6708 29.3583 8.25337 34.7128 3.53195Z" fill="url(#paint32_radial_351_72416)"/>
<path d="M34.7216 3.52763C37.4802 1.1079 41.0712 -0.145233 44.7363 0.0327849C48.4015 0.210803 51.8541 1.80604 54.3652 4.48172C54.3652 4.48172 53.5805 6.48799 47.9229 10.9731C47.8976 11.5823 48.0009 12.1899 48.226 12.7565C49.3629 15.5073 53.3353 22.7343 53.3264 22.7611L53.1347 22.9305L53.05 23.0018C47.7133 27.5226 38.9169 26.9207 34.0974 21.8114C29.2066 16.6308 29.3715 8.23122 34.7216 3.52763Z" fill="url(#paint33_radial_351_72416)"/>
<path d="M34.7262 3.51875C37.4862 1.10254 41.0766 -0.14752 44.7403 0.0321338C48.4041 0.211788 51.855 1.80712 54.3653 4.48176C54.3653 4.48176 53.808 6.31415 47.9809 10.933C47.9905 11.5527 48.1161 12.1651 48.351 12.7387C49.5235 15.5519 53.3176 22.6942 53.3087 22.7031L53.117 22.8726L53.0367 22.9439C47.7134 27.4647 38.9171 26.8494 34.1109 21.758C29.229 16.5952 29.3895 8.20896 34.7262 3.51875Z" fill="url(#paint34_radial_351_72416)"/>
<path d="M34.7354 3.51412C37.4969 1.10741 41.0841 -0.134674 44.7426 0.0490817C48.4011 0.232837 51.8457 1.82811 54.3522 4.49942C54.3522 4.49942 54.0178 6.14456 48.0258 10.8927C48.0775 11.5145 48.228 12.124 48.4716 12.6984C49.6798 15.5963 53.3045 22.6539 53.2956 22.6628L53.1039 22.8323C53.0737 22.8536 53.0453 22.8775 53.0192 22.9036C47.7092 27.4066 38.9173 26.7735 34.1246 21.7043C29.2516 16.5549 29.4031 8.19095 34.7354 3.51412Z" fill="url(#paint35_radial_351_72416)"/>
<path d="M34.7396 3.50969C37.5012 1.10248 41.089 -0.139518 44.7478 0.0450871C48.4066 0.229692 51.8512 1.8265 54.3565 4.49945C54.3565 4.49945 54.2495 5.97518 48.088 10.8526C48.1755 11.4751 48.3433 12.0835 48.5873 12.6627C49.8357 15.6276 53.2865 22.6094 53.2775 22.6183L53.0858 22.7877C53.0591 22.7877 53.0279 22.8412 53.0011 22.8591C47.7046 27.3487 38.9171 26.7111 34.1332 21.6508C29.2736 16.5192 29.4207 8.1687 34.7396 3.50969Z" fill="url(#paint36_radial_351_72416)"/>
<path d="M34.7489 3.50077C37.5126 1.09679 41.1005 -0.142277 44.7587 0.0439586C48.4169 0.230194 51.8605 1.82723 54.3657 4.49944C54.3657 4.49944 54.4817 5.81912 48.1552 10.817C48.2848 11.4364 48.476 12.0413 48.7259 12.6226C49.9965 15.6811 53.2779 22.5693 53.2645 22.5782C53.2512 22.5871 53.1352 22.6985 53.0728 22.7476L52.9926 22.8189C47.7094 27.2996 38.9175 26.6398 34.147 21.5973C29.2918 16.4791 29.439 8.1464 34.7489 3.50077Z" fill="url(#paint37_radial_351_72416)"/>
<path d="M34.7528 3.49629C37.5171 1.09238 41.1059 -0.145833 44.7645 0.0420835C48.423 0.23 51.8661 1.8294 54.3696 4.50389C54.3696 4.50389 54.7085 5.63186 48.2171 10.7768C48.3837 11.3937 48.5923 11.9985 48.8412 12.5869C50.1475 15.7078 53.255 22.5291 53.2461 22.538L53.0544 22.7075L52.9697 22.7788C47.7044 27.2193 38.9169 26.5684 34.1554 21.5483C29.3136 16.439 29.4518 8.12409 34.7528 3.49629Z" fill="url(#paint38_radial_351_72416)"/>
<path d="M34.7623 3.49209C37.5272 1.08874 41.1164 -0.148697 44.7749 0.0400512C48.4335 0.2288 51.8763 1.82903 54.3792 4.50415C54.3792 4.50415 54.932 5.45824 48.2801 10.7236C48.2801 10.7236 48.5253 11.4726 48.9712 12.5337C50.3087 15.7526 53.2423 22.4759 53.2334 22.4848L53.0417 22.6542L52.9614 22.7211C47.7005 27.175 38.9175 26.5018 34.1693 21.495C29.3365 16.3991 29.4702 8.10206 34.7623 3.49209Z" fill="url(#paint39_radial_351_72416)"/>
<path d="M53.2113 22.4578C48.0039 27.1391 39.0024 26.5194 34.1784 21.4235C29.3545 16.3276 29.4838 8.04835 34.7669 3.46513C37.5334 1.06396 41.123 -0.171246 44.7813 0.0191492C48.4395 0.209545 51.8815 1.81071 54.3838 4.4861C54.3838 4.4861 55.1729 5.27078 48.3472 10.6788C48.3338 10.6966 53.2291 22.4445 53.2113 22.4578Z" fill="url(#paint40_radial_351_72416)"/>
<path d="M48.1368 10.8472C46.0013 12.5993 43.3753 14.6635 40.3213 16.9774C42.59 19.4309 45.2286 21.5144 48.1413 23.1523C50.6424 24.4898 52.5997 24.7395 53.5582 23.8924C54.5168 23.0453 54.4008 21.0925 53.2863 18.5423C51.9666 15.7329 50.2306 13.1386 48.1368 10.8472Z" fill="url(#paint41_linear_351_72416)"/>
<path d="M48.3284 10.6733L47.2584 11.565C49.2176 13.7187 50.8463 16.1512 52.0912 18.7831C53.1835 21.2977 53.1568 22.5594 52.8046 22.8759C52.4524 23.1925 50.9321 23.2727 48.5023 21.9843C45.8106 20.4578 43.3762 18.5169 41.2886 16.2329L40.0938 17.1246L40.3746 17.3966C45.4349 22.6263 50.9098 25.6045 53.3173 24.5211C53.3886 24.4854 53.46 24.4497 53.5268 24.4096H53.5536C53.6467 24.3518 53.7347 24.2862 53.8166 24.2134C53.9034 24.1349 53.9825 24.0483 54.0529 23.9549C55.6267 21.8906 53.2371 16.331 48.4755 10.8829L48.3284 10.6733Z" fill="#84EEB1"/>
</g>
<path d="M69.1025 24.7985C66.514 24.7985 64.4716 23.8582 62.9751 21.9775C61.4787 20.0766 60.7305 17.4073 60.7305 13.9695C60.7305 10.6126 61.4686 7.96346 62.9448 6.02212C64.4413 4.08078 66.5848 3.11011 69.3755 3.11011C70.3462 3.11011 71.2157 3.25166 71.9842 3.53478C72.7526 3.79767 73.3795 4.101 73.8649 4.44478V7.38712C73.3189 7.04335 72.6717 6.71979 71.9235 6.41645C71.1753 6.11312 70.3866 5.96145 69.5575 5.96145C67.7779 5.96145 66.4837 6.61868 65.6748 7.93313C64.8659 9.24758 64.4615 11.2597 64.4615 13.9695C64.4615 16.5984 64.8659 18.5903 65.6748 19.9452C66.4837 21.2798 67.7173 21.9472 69.3755 21.9472C70.3462 21.9472 71.1854 21.8056 71.8932 21.5225C72.601 21.2192 73.2582 20.8451 73.8649 20.4002V23.3425C73.3997 23.6661 72.7729 23.9896 71.9842 24.3132C71.1955 24.6367 70.235 24.7985 69.1025 24.7985Z" fill="black"/>
<path d="M76.1484 9.23746H88.0391V24.4952H84.4294V12.0888H79.7581V24.4952H76.1484V9.23746Z" fill="black"/>
<path d="M89.8648 21.3708C89.8648 21.3708 89.9356 21.4214 90.0771 21.5225C90.2187 21.6034 90.4209 21.6438 90.6838 21.6438C91.2703 21.6438 91.6545 21.3405 91.8365 20.7338C92.0185 20.1272 92.1398 19.0149 92.2005 17.3972L92.5038 9.23746H102.848V24.4952H99.2379V12.0888H95.5675L95.3552 17.5488C95.2743 20.0766 94.9608 21.9168 94.4148 23.0695C93.8688 24.2222 92.8274 24.7985 91.2905 24.7985C90.8658 24.7985 90.522 24.748 90.2591 24.6469C89.9963 24.5457 89.8648 24.4952 89.8648 24.4952V21.3708Z" fill="black"/>
<path d="M105.889 9.23746H109.408V18.6712L114.989 9.23746H118.114V24.4952H114.595V15.0615L109.014 24.4952H105.889V9.23746Z" fill="black"/>
<path d="M132.338 12.0888H128.091V24.4952H124.482V12.0888H120.235V9.23746H132.338V12.0888Z" fill="black"/>
<defs>
<radialGradient id="paint0_radial_351_72416" cx="0" cy="0" r="1" gradientUnits="userSpaceOnUse" gradientTransform="translate(47.5971 1.58624) rotate(-2.29061) scale(64.185 47.498)">
<stop stop-color="#03BA50"/>
<stop offset="0.8" stop-color="#01B64E"/>
</radialGradient>
<radialGradient id="paint1_radial_351_72416" cx="0" cy="0" r="1" gradientUnits="userSpaceOnUse" gradientTransform="translate(47.5904 1.58105) rotate(-2.29061) scale(64.0512 47.3989)">
<stop stop-color="#04BC50"/>
<stop offset="0.8" stop-color="#01B34D"/>
</radialGradient>
<radialGradient id="paint2_radial_351_72416" cx="0" cy="0" r="1" gradientUnits="userSpaceOnUse" gradientTransform="translate(47.5757 1.59306) rotate(-2.29061) scale(63.9173 47.2999)">
<stop stop-color="#06BD51"/>
<stop offset="0.72" stop-color="#02B24C"/>
<stop offset="0.8" stop-color="#01B04B"/>
</radialGradient>
<radialGradient id="paint3_radial_351_72416" cx="0" cy="0" r="1" gradientUnits="userSpaceOnUse" gradientTransform="translate(47.5511 1.61318) rotate(-2.29061) scale(63.7835 47.2008)">
<stop stop-color="#08BF52"/>
<stop offset="0.56" stop-color="#04B44D"/>
<stop offset="0.8" stop-color="#01AD4A"/>
</radialGradient>
<radialGradient id="paint4_radial_351_72416" cx="0" cy="0" r="1" gradientUnits="userSpaceOnUse" gradientTransform="translate(47.5269 1.63272) rotate(-2.29061) scale(63.6496 47.1017)">
<stop stop-color="#0AC053"/>
<stop offset="0.48" stop-color="#05B54E"/>
<stop offset="0.8" stop-color="#01AA49"/>
</radialGradient>
<radialGradient id="paint5_radial_351_72416" cx="0" cy="0" r="1" gradientUnits="userSpaceOnUse" gradientTransform="translate(47.4996 1.68089) rotate(-1.71836) scale(63.4891 46.9968)">
<stop stop-color="#0BC253"/>
<stop offset="0.42" stop-color="#07B74E"/>
<stop offset="0.8" stop-color="#01A848"/>
</radialGradient>
<radialGradient id="paint6_radial_351_72416" cx="0" cy="0" r="1" gradientUnits="userSpaceOnUse" gradientTransform="translate(47.4619 1.69304) rotate(-1.71836) scale(63.3553 46.8977)">
<stop stop-color="#0DC354"/>
<stop offset="0.37" stop-color="#08B84F"/>
<stop offset="0.8" stop-color="#01A546"/>
</radialGradient>
<radialGradient id="paint7_radial_351_72416" cx="0" cy="0" r="1" gradientUnits="userSpaceOnUse" gradientTransform="translate(47.933 1.70543) rotate(-1.71836) scale(63.2214 46.7797)">
<stop stop-color="#0FC555"/>
<stop offset="0.33" stop-color="#0ABA50"/>
<stop offset="0.8" stop-color="#01A245"/>
</radialGradient>
<radialGradient id="paint8_radial_351_72416" cx="0" cy="0" r="1" gradientUnits="userSpaceOnUse" gradientTransform="translate(47.8862 1.72803) rotate(-1.70136) scale(63.7179 46.6807)">
<stop stop-color="#11C656"/>
<stop offset="0.3" stop-color="#0CBB51"/>
<stop offset="0.8" stop-color="#019F44"/>
</radialGradient>
<radialGradient id="paint9_radial_351_72416" cx="0" cy="0" r="1" gradientUnits="userSpaceOnUse" gradientTransform="translate(47.87 1.75089) rotate(-1.70135) scale(63.5828 46.5817)">
<stop stop-color="#12C856"/>
<stop offset="0.28" stop-color="#0EBD51"/>
<stop offset="0.77" stop-color="#029E44"/>
<stop offset="0.8" stop-color="#019C43"/>
</radialGradient>
<radialGradient id="paint10_radial_351_72416" cx="0" cy="0" r="1" gradientUnits="userSpaceOnUse" gradientTransform="translate(47.855 1.78177) rotate(-1.70136) scale(63.4432 46.4794)">
<stop stop-color="#14C957"/>
<stop offset="0.26" stop-color="#0FBE52"/>
<stop offset="0.72" stop-color="#049F44"/>
<stop offset="0.8" stop-color="#019941"/>
</radialGradient>
<radialGradient id="paint11_radial_351_72416" cx="0" cy="0" r="1" gradientUnits="userSpaceOnUse" gradientTransform="translate(47.8261 1.81981) rotate(-1.70136) scale(63.308 46.3804)">
<stop stop-color="#16CB58"/>
<stop offset="0.24" stop-color="#11C053"/>
<stop offset="0.66" stop-color="#06A145"/>
<stop offset="0.8" stop-color="#019640"/>
</radialGradient>
<radialGradient id="paint12_radial_351_72416" cx="0" cy="0" r="1" gradientUnits="userSpaceOnUse" gradientTransform="translate(47.7923 1.86091) rotate(-1.70135) scale(63.1729 46.2814)">
<stop stop-color="#18CC59"/>
<stop offset="0.23" stop-color="#13C154"/>
<stop offset="0.62" stop-color="#07A246"/>
<stop offset="0.8" stop-color="#01933F"/>
</radialGradient>
<radialGradient id="paint13_radial_351_72416" cx="0" cy="0" r="1" gradientUnits="userSpaceOnUse" gradientTransform="translate(47.7587 1.91024) rotate(-1.70136) scale(63.0332 46.1791)">
<stop stop-color="#19CD59"/>
<stop offset="0.21" stop-color="#15C254"/>
<stop offset="0.59" stop-color="#09A347"/>
<stop offset="0.8" stop-color="#01903E"/>
</radialGradient>
<radialGradient id="paint14_radial_351_72416" cx="0" cy="0" r="1" gradientUnits="userSpaceOnUse" gradientTransform="translate(47.7164 1.96319) rotate(-1.70135) scale(62.8981 46.0801)">
<stop stop-color="#1BCF5A"/>
<stop offset="0.2" stop-color="#17C455"/>
<stop offset="0.56" stop-color="#0BA547"/>
<stop offset="0.8" stop-color="#018D3C"/>
</radialGradient>
<radialGradient id="paint15_radial_351_72416" cx="0" cy="0" r="1" gradientUnits="userSpaceOnUse" gradientTransform="translate(47.6697 1.76947) rotate(-1.13442) scale(62.7476 45.98)">
<stop stop-color="#1DD05B"/>
<stop offset="0.19" stop-color="#18C556"/>
<stop offset="0.54" stop-color="#0CA648"/>
<stop offset="0.8" stop-color="#018B3B"/>
</radialGradient>
<radialGradient id="paint16_radial_351_72416" cx="0" cy="0" r="1" gradientUnits="userSpaceOnUse" gradientTransform="translate(47.6191 1.80981) rotate(-1.13442) scale(62.6079 45.8777)">
<stop stop-color="#1ED25B"/>
<stop offset="0.18" stop-color="#1AC756"/>
<stop offset="0.51" stop-color="#0EA848"/>
<stop offset="0.8" stop-color="#01883A"/>
</radialGradient>
<radialGradient id="paint17_radial_351_72416" cx="0" cy="0" r="1" gradientUnits="userSpaceOnUse" gradientTransform="translate(47.5681 1.84901) rotate(-1.13442) scale(62.4728 45.7787)">
<stop stop-color="#20D35C"/>
<stop offset="0.18" stop-color="#1BC857"/>
<stop offset="0.49" stop-color="#0FA949"/>
<stop offset="0.8" stop-color="#018539"/>
</radialGradient>
<radialGradient id="paint18_radial_351_72416" cx="0" cy="0" r="1" gradientUnits="userSpaceOnUse" gradientTransform="translate(47.5073 1.90388) rotate(-1.13442) scale(62.3377 45.6797)">
<stop stop-color="#22D55D"/>
<stop offset="0.17" stop-color="#1DCA58"/>
<stop offset="0.47" stop-color="#11AB4A"/>
<stop offset="0.8" stop-color="#018237"/>
</radialGradient>
<radialGradient id="paint19_radial_351_72416" cx="0" cy="0" r="1" gradientUnits="userSpaceOnUse" gradientTransform="translate(47.4388 1.95439) rotate(-1.13442) scale(62.1981 45.5774)">
<stop stop-color="#24D65E"/>
<stop offset="0.16" stop-color="#1FCB59"/>
<stop offset="0.45" stop-color="#13AC4B"/>
<stop offset="0.8" stop-color="#017F36"/>
</radialGradient>
<radialGradient id="paint20_radial_351_72416" cx="0" cy="0" r="1" gradientUnits="userSpaceOnUse" gradientTransform="translate(47.365 2.01639) rotate(-1.13442) scale(62.063 45.4784)">
<stop stop-color="#25D85E"/>
<stop offset="0.15" stop-color="#20CD59"/>
<stop offset="0.43" stop-color="#14AE4B"/>
<stop offset="0.79" stop-color="#017D36"/>
<stop offset="0.8" stop-color="#007C35"/>
</radialGradient>
<radialGradient id="paint21_radial_351_72416" cx="0" cy="0" r="1" gradientUnits="userSpaceOnUse" gradientTransform="translate(48.7149 2.08616) rotate(-1.13442) scale(61.9279 45.3672)">
<stop stop-color="#27D95F"/>
<stop offset="0.15" stop-color="#22CE5A"/>
<stop offset="0.42" stop-color="#16AF4C"/>
<stop offset="0.77" stop-color="#027E36"/>
<stop offset="0.8" stop-color="#007934"/>
</radialGradient>
<radialGradient id="paint22_radial_351_72416" cx="0" cy="0" r="1" gradientUnits="userSpaceOnUse" gradientTransform="translate(48.2532 2.15823) rotate(-1.1233) scale(62.3998 45.2651)">
<stop stop-color="#29DB60"/>
<stop offset="0.14" stop-color="#24D05B"/>
<stop offset="0.4" stop-color="#18B14D"/>
<stop offset="0.74" stop-color="#048037"/>
<stop offset="0.8" stop-color="#007632"/>
</radialGradient>
<radialGradient id="paint23_radial_351_72416" cx="0" cy="0" r="1" gradientUnits="userSpaceOnUse" gradientTransform="translate(48.1991 2.23834) rotate(-1.1233) scale(62.2633 45.1661)">
<stop stop-color="#2BDC61"/>
<stop offset="0.14" stop-color="#26D15C"/>
<stop offset="0.39" stop-color="#1AB24E"/>
<stop offset="0.71" stop-color="#068138"/>
<stop offset="0.8" stop-color="#007331"/>
</radialGradient>
<radialGradient id="paint24_radial_351_72416" cx="0" cy="0" r="1" gradientUnits="userSpaceOnUse" gradientTransform="translate(48.1444 2.3263) rotate(-1.1233) scale(62.1224 45.0638)">
<stop stop-color="#2CDE61"/>
<stop offset="0.13" stop-color="#27D35C"/>
<stop offset="0.37" stop-color="#1BB44E"/>
<stop offset="0.69" stop-color="#088339"/>
<stop offset="0.8" stop-color="#007030"/>
</radialGradient>
<radialGradient id="paint25_radial_351_72416" cx="0" cy="0" r="1" gradientUnits="userSpaceOnUse" gradientTransform="translate(48.0854 1.88) rotate(-0.561705) scale(61.977 44.9653)">
<stop stop-color="#2EDF62"/>
<stop offset="0.13" stop-color="#29D45D"/>
<stop offset="0.37" stop-color="#1DB54F"/>
<stop offset="0.67" stop-color="#098439"/>
<stop offset="0.8" stop-color="#006E2F"/>
</radialGradient>
<radialGradient id="paint26_radial_351_72416" cx="0" cy="0" r="1" gradientUnits="userSpaceOnUse" gradientTransform="translate(48.0171 1.94978) rotate(-0.561705) scale(61.8405 44.8663)">
<stop stop-color="#30E163"/>
<stop offset="0.13" stop-color="#2BD65E"/>
<stop offset="0.35" stop-color="#1FB750"/>
<stop offset="0.65" stop-color="#0B8639"/>
<stop offset="0.8" stop-color="#006B2D"/>
</radialGradient>
<radialGradient id="paint27_radial_351_72416" cx="0" cy="0" r="1" gradientUnits="userSpaceOnUse" gradientTransform="translate(47.949 2.02735) rotate(-0.561706) scale(61.6995 44.764)">
<stop stop-color="#31E263"/>
<stop offset="0.12" stop-color="#2CD75E"/>
<stop offset="0.34" stop-color="#20B850"/>
<stop offset="0.63" stop-color="#0D873A"/>
<stop offset="0.8" stop-color="#00682C"/>
</radialGradient>
<radialGradient id="paint28_radial_351_72416" cx="0" cy="0" r="1" gradientUnits="userSpaceOnUse" gradientTransform="translate(47.8723 2.10807) rotate(-0.561706) scale(61.5631 44.6651)">
<stop stop-color="#33E364"/>
<stop offset="0.12" stop-color="#2ED85F"/>
<stop offset="0.34" stop-color="#22B951"/>
<stop offset="0.62" stop-color="#0E883B"/>
<stop offset="0.8" stop-color="#00652B"/>
</radialGradient>
<radialGradient id="paint29_radial_351_72416" cx="0" cy="0" r="1" gradientUnits="userSpaceOnUse" gradientTransform="translate(47.7905 2.19589) rotate(-0.561705) scale(61.4221 44.5628)">
<stop stop-color="#35E565"/>
<stop offset="0.12" stop-color="#30DA60"/>
<stop offset="0.33" stop-color="#24BB52"/>
<stop offset="0.6" stop-color="#108A3C"/>
<stop offset="0.8" stop-color="#00622A"/>
</radialGradient>
<radialGradient id="paint30_radial_351_72416" cx="0" cy="0" r="1" gradientUnits="userSpaceOnUse" gradientTransform="translate(47.7088 2.28668) rotate(-0.561705) scale(61.2857 44.4637)">
<stop stop-color="#37E666"/>
<stop offset="0.11" stop-color="#32DB61"/>
<stop offset="0.32" stop-color="#26BC53"/>
<stop offset="0.59" stop-color="#128B3C"/>
<stop offset="0.8" stop-color="#005F28"/>
</radialGradient>
<radialGradient id="paint31_radial_351_72416" cx="0" cy="0" r="1" gradientUnits="userSpaceOnUse" gradientTransform="translate(47.6172 2.38588) rotate(-0.561705) scale(61.1447 44.3615)">
<stop stop-color="#38E866"/>
<stop offset="0.11" stop-color="#33DD61"/>
<stop offset="0.31" stop-color="#27BE53"/>
<stop offset="0.57" stop-color="#148D3D"/>
<stop offset="0.8" stop-color="#005C27"/>
</radialGradient>
<radialGradient id="paint32_radial_351_72416" cx="0" cy="0" r="1" gradientUnits="userSpaceOnUse" gradientTransform="translate(47.5217 2.49114) rotate(-0.561706) scale(61.0082 44.2625)">
<stop stop-color="#3AE967"/>
<stop offset="0.11" stop-color="#35DE62"/>
<stop offset="0.3" stop-color="#29BF54"/>
<stop offset="0.56" stop-color="#158E3E"/>
<stop offset="0.8" stop-color="#005926"/>
</radialGradient>
<radialGradient id="paint33_radial_351_72416" cx="0" cy="0" r="1" gradientUnits="userSpaceOnUse" gradientTransform="translate(47.4261 2.6002) rotate(-0.561705) scale(60.8718 44.1635)">
<stop stop-color="#3CEB68"/>
<stop offset="0.11" stop-color="#37E063"/>
<stop offset="0.29" stop-color="#2BC155"/>
<stop offset="0.54" stop-color="#17903F"/>
<stop offset="0.8" stop-color="#005625"/>
</radialGradient>
<radialGradient id="paint34_radial_351_72416" cx="0" cy="0" r="1" gradientUnits="userSpaceOnUse" gradientTransform="translate(47.317 2.71704) rotate(-0.561705) scale(60.7308 44.0612)">
<stop stop-color="#3EEC69"/>
<stop offset="0.1" stop-color="#39E164"/>
<stop offset="0.29" stop-color="#2DC256"/>
<stop offset="0.53" stop-color="#19913F"/>
<stop offset="0.8" stop-color="#005323"/>
</radialGradient>
<radialGradient id="paint35_radial_351_72416" cx="0" cy="0" r="1" gradientUnits="userSpaceOnUse" gradientTransform="translate(47.2082 2.02315) scale(60.5915 43.9585)">
<stop stop-color="#3FEE69"/>
<stop offset="0.1" stop-color="#3AE364"/>
<stop offset="0.28" stop-color="#2EC456"/>
<stop offset="0.52" stop-color="#1A9340"/>
<stop offset="0.8" stop-color="#005122"/>
</radialGradient>
<radialGradient id="paint36_radial_351_72416" cx="0" cy="0" r="1" gradientUnits="userSpaceOnUse" gradientTransform="translate(48.6384 2.12073) scale(61.0432 43.8563)">
<stop stop-color="#41EF6A"/>
<stop offset="0.1" stop-color="#3CE465"/>
<stop offset="0.28" stop-color="#30C557"/>
<stop offset="0.51" stop-color="#1C9441"/>
<stop offset="0.79" stop-color="#015022"/>
<stop offset="0.8" stop-color="#004E21"/>
</radialGradient>
<radialGradient id="paint37_radial_351_72416" cx="0" cy="0" r="1" gradientUnits="userSpaceOnUse" gradientTransform="translate(48.5506 2.22603) scale(60.91 43.7606)">
<stop stop-color="#43F16B"/>
<stop offset="0.1" stop-color="#3EE666"/>
<stop offset="0.27" stop-color="#32C758"/>
<stop offset="0.5" stop-color="#1E9642"/>
<stop offset="0.77" stop-color="#035223"/>
<stop offset="0.8" stop-color="#004B20"/>
</radialGradient>
<radialGradient id="paint38_radial_351_72416" cx="0" cy="0" r="1" gradientUnits="userSpaceOnUse" gradientTransform="translate(48.4663 2.33792) scale(60.7722 43.6616)">
<stop stop-color="#45F26C"/>
<stop offset="0.1" stop-color="#40E767"/>
<stop offset="0.27" stop-color="#34C859"/>
<stop offset="0.49" stop-color="#209742"/>
<stop offset="0.76" stop-color="#055323"/>
<stop offset="0.8" stop-color="#00481E"/>
</radialGradient>
<radialGradient id="paint39_radial_351_72416" cx="0" cy="0" r="1" gradientUnits="userSpaceOnUse" gradientTransform="translate(48.3786 2.45784) scale(60.6299 43.5593)">
<stop stop-color="#46F46C"/>
<stop offset="0.09" stop-color="#41E967"/>
<stop offset="0.26" stop-color="#35CA59"/>
<stop offset="0.48" stop-color="#229943"/>
<stop offset="0.74" stop-color="#065524"/>
<stop offset="0.8" stop-color="#00451D"/>
</radialGradient>
<radialGradient id="paint40_radial_351_72416" cx="0" cy="0" r="1" gradientUnits="userSpaceOnUse" gradientTransform="translate(48.2948 2.58389) scale(60.4875 43.4571)">
<stop stop-color="#48F56D"/>
<stop offset="0.09" stop-color="#43EA68"/>
<stop offset="0.25" stop-color="#37CB5A"/>
<stop offset="0.47" stop-color="#239A44"/>
<stop offset="0.73" stop-color="#085625"/>
<stop offset="0.8" stop-color="#00421C"/>
</radialGradient>
<linearGradient id="paint41_linear_351_72416" x1="49.2782" y1="33.8301" x2="44.0619" y2="-3.57569" gradientUnits="userSpaceOnUse">
<stop offset="0.1" stop-color="#FF8475"/>
<stop offset="0.37" stop-color="#E84E43"/>
<stop offset="0.6" stop-color="#D6261F"/>
<stop offset="0.79" stop-color="#CC0E08"/>
<stop offset="0.9" stop-color="#C80500"/>
</linearGradient>
<clipPath id="clip0_351_72416">
<rect width="28" height="28" fill="white" transform="translate(30)"/>
</clipPath>
</defs>
</svg>