<svg width="152" height="22" viewBox="0 0 396 57" fill="none" xmlns="http://www.w3.org/2000/svg">
<path d="M21.596 49.8753V12.7634H18.2652C15.2222 12.7634 12.8989 13.4838 11.2952 14.9247C9.73255 16.3243 8.95124 18.1563 8.95124 20.4204C8.95124 23.0139 9.50638 25.0723 10.6167 26.5955C11.7681 28.0775 13.4746 29.5801 15.7363 31.1032L19.4989 33.635L8.64283 49.8753H0.5625L10.3082 35.364C7.512 33.3468 5.35313 31.2473 3.83164 29.0655C2.31015 26.8836 1.54941 24.146 1.54941 20.8527C1.54941 16.736 2.9681 13.4015 5.80546 10.8491C8.64283 8.25564 12.7755 6.95888 18.2035 6.95888H29.0595V49.8753H21.596ZM165.5 50.4928C160.607 50.4928 156.947 49.0931 154.521 46.2938C152.136 43.4944 150.943 39.5218 150.943 34.376C150.943 32.0295 151.251 29.8682 151.868 27.8922C152.485 25.875 153.369 24.1666 154.521 22.7669C155.713 21.3261 157.193 20.2146 158.962 19.4324C160.771 18.6091 162.848 18.1974 165.192 18.1974C167.001 18.1974 168.564 18.3415 169.879 18.6297C171.236 18.9178 172.306 19.2678 173.087 19.6794V25.9162C172.347 25.4634 171.319 25.0311 170.003 24.6195C168.728 24.2078 167.392 24.0019 165.993 24.0019C163.608 24.0019 161.758 24.8665 160.442 26.5955C159.167 28.3245 158.53 30.8562 158.53 34.1907C158.53 37.4018 159.106 39.9541 160.257 41.8478C161.45 43.7414 163.341 44.6883 165.932 44.6883C167.453 44.6883 168.79 44.503 169.941 44.1325C171.134 43.762 172.182 43.2474 173.087 42.5888V48.5785C172.182 49.2372 171.113 49.7106 169.879 49.9988C168.646 50.3281 167.186 50.4928 165.5 50.4928ZM119.609 47.7758C118.539 48.5168 117.141 49.1549 115.414 49.69C113.687 50.2252 111.652 50.4928 109.308 50.4928C104.661 50.4928 101.042 49.1755 98.4517 46.5408C95.9022 43.8649 94.6274 39.8306 94.6274 34.4377C94.6274 32.0912 94.8947 29.93 95.4293 27.954C95.9639 25.9368 96.7657 24.2284 97.8349 22.8287C98.9452 21.3879 100.323 20.2558 101.968 19.4324C103.654 18.6091 105.607 18.1974 107.827 18.1974C111.487 18.1974 114.407 19.3295 116.586 21.5937C118.807 23.8579 119.917 27.6864 119.917 33.0792V36.9695H102.214C102.379 39.563 103.037 41.4978 104.188 42.774C105.34 44.0502 107.252 44.6883 109.925 44.6883C111.693 44.6883 113.461 44.4001 115.229 43.8238C116.997 43.2474 118.457 42.5682 119.609 41.786V47.7758ZM52.3753 18.8149H59.7155V49.8753H52.3753V36.9077H42.5679V49.8753H35.2277V18.8149H42.5679V31.1032H52.3753V18.8149ZM92.8387 44.0708V56.9766H86.0537V49.8753H69.5846V56.9766H62.7996V44.0708H65.0818C65.7397 42.7946 66.2538 41.2508 66.6238 39.4395C67.0351 37.6282 67.3435 35.7139 67.5491 33.6967C67.7958 31.6796 67.9603 29.6212 68.0425 27.5217C68.1248 25.381 68.1659 23.3639 68.1659 21.4702V18.8149H89.5695V44.0708H92.8387ZM143.048 49.8753L132.192 34.623V49.8753H124.852V18.8149H132.192V33.141L142.554 18.8149H149.956L139.594 33.141L151.375 49.8753H143.048ZM107.704 24.0019C105.936 24.0019 104.599 24.64 103.695 25.9162C102.79 27.1924 102.297 29.0655 102.214 31.5355H112.454V30.918C112.454 28.9831 112.104 27.357 111.405 26.0397C110.747 24.6812 109.513 24.0019 107.704 24.0019ZM82.2294 44.0708V24.6195H74.4574V25.5457C74.4574 26.863 74.4163 28.3656 74.3341 30.0535C74.2518 31.7001 74.1079 33.3674 73.9023 35.0552C73.7378 36.7431 73.4705 38.3898 73.1004 39.9953C72.7715 41.5596 72.3603 42.9181 71.8668 44.0708H82.2294Z" fill="black"/>
<path d="M267.114 50.4928C261.85 50.4928 257.697 48.5785 254.654 44.75C251.611 40.8803 250.089 35.4463 250.089 28.4479C250.089 21.6142 251.59 16.2214 254.592 12.2694C257.635 8.31736 261.994 6.34135 267.669 6.34135C269.643 6.34135 271.411 6.62952 272.973 7.20585C274.536 7.74102 275.811 8.35852 276.798 9.05836V15.0481C275.687 14.3483 274.371 13.6896 272.85 13.0721C271.328 12.4546 269.725 12.1459 268.039 12.1459C264.42 12.1459 261.788 13.4838 260.144 16.1596C258.499 18.8355 257.676 22.9316 257.676 28.4479C257.676 33.7996 258.499 37.8545 260.144 40.6127C261.788 43.3297 264.297 44.6882 267.669 44.6882C269.643 44.6882 271.349 44.4001 272.788 43.8237C274.228 43.2062 275.564 42.4446 276.798 41.539V47.5288C275.852 48.1874 274.577 48.8461 272.973 49.5048C271.37 50.1634 269.416 50.4928 267.114 50.4928Z" fill="black"/>
<path d="M281.441 18.8149H305.62V49.8753H298.28V24.6194H288.781V49.8753H281.441V18.8149Z" fill="black"/>
<path d="M309.333 43.515C309.333 43.515 309.477 43.6179 309.765 43.8237C310.053 43.9884 310.464 44.0707 310.998 44.0707C312.191 44.0707 312.972 43.4532 313.342 42.2182C313.712 40.9832 313.959 38.7191 314.082 35.4257L314.699 18.8149H335.733V49.8753H328.393V24.6194H320.929L320.497 35.7345C320.333 40.8803 319.695 44.6265 318.585 46.973C317.475 49.3195 315.357 50.4928 312.232 50.4928C311.368 50.4928 310.669 50.3898 310.135 50.184C309.6 49.9782 309.333 49.8753 309.333 49.8753V43.515Z" fill="black"/>
<path d="M341.918 18.8149H349.073V38.0192L360.423 18.8149H366.776V49.8753H359.621V30.6709L348.272 49.8753H341.918V18.8149Z" fill="black"/>
<path d="M395.701 24.6194H387.065V49.8753H379.725V24.6194H371.09V18.8149H395.701V24.6194Z" fill="black"/>
<g clip-path="url(#clip0_2223_20818)">
<path d="M216.154 28.6366L236.154 49.1392L235.746 49.5114L235.574 49.6747C229.973 54.6755 222.636 57.2744 215.14 56.9118C207.645 56.5492 200.591 53.2541 195.499 47.7361C190.407 42.218 187.683 34.9186 187.914 27.4096C188.145 19.9007 191.313 12.783 196.735 7.58941C202.31 2.48215 209.67 -0.220695 217.221 0.0664007C224.772 0.353497 231.907 3.60741 237.078 9.12325L216.154 28.6366Z" fill="#01B94F"/>
<path d="M196.754 7.5804C202.328 2.4776 209.686 -0.221687 217.233 0.0670974C224.781 0.355882 231.911 3.60949 237.079 9.12332C237.079 9.12332 220.443 24.7159 220.108 24.9881C220.108 24.9881 216.382 28.5005 216.409 28.555C216.436 28.6095 236.118 49.0577 236.118 49.0577L235.72 49.4388L235.547 49.6022C223.798 59.9488 205.793 59.4769 195.159 47.9685C190.052 42.3859 187.354 35.0098 187.653 27.4457C187.952 19.8816 191.223 12.7418 196.754 7.5804Z" fill="url(#paint0_radial_2223_20818)"/>
<path d="M196.763 7.56246C202.341 2.46641 209.699 -0.226747 217.245 0.0653814C224.791 0.35751 231.919 3.61144 237.088 9.12354C237.088 9.12354 220.896 24.3712 220.235 24.9067C220.235 24.9067 216.608 28.3737 216.672 28.4826C216.808 28.8093 236.091 48.9671 236.091 48.9671L235.692 49.3483L235.52 49.5117C223.797 59.8401 205.783 59.3319 195.185 47.8598C190.086 42.2926 187.391 34.9337 187.686 27.386C187.981 19.8383 191.244 12.7132 196.763 7.56246Z" fill="url(#paint1_radial_2223_20818)"/>
<path d="M196.781 7.55334C202.359 2.46398 209.714 -0.224153 217.256 0.0696349C224.798 0.363423 231.921 3.61554 237.088 9.12349C237.088 9.12349 221.358 24.0172 220.343 24.8249C220.343 24.8249 216.844 28.2375 216.907 28.4009C217.116 28.891 236.054 48.8854 236.054 48.8854L235.646 49.2666L235.474 49.4209C223.788 59.7221 205.783 59.1957 195.203 47.7509C190.112 42.1992 187.421 34.8572 187.716 27.3266C188.012 19.796 191.27 12.688 196.781 7.55334Z" fill="url(#paint2_radial_2223_20818)"/>
<path d="M196.79 7.54427C202.369 2.45881 209.723 -0.22601 217.262 0.0694573C224.802 0.364924 231.923 3.61698 237.088 9.12349C237.088 9.12349 221.812 23.6451 220.461 24.7433C220.461 24.7433 217.071 28.1105 217.161 28.3283C217.433 28.9818 236.018 48.8037 236.018 48.8037L235.619 49.1758C235.619 49.1758 235.447 49.3301 235.447 49.3392C223.788 59.6042 205.783 59.0415 195.231 47.642C190.148 42.1073 187.459 34.784 187.751 27.2712C188.043 19.7585 191.293 12.6667 196.79 7.54427Z" fill="url(#paint3_radial_2223_20818)"/>
<path d="M196.808 7.52609C202.388 2.44847 209.739 -0.229746 217.274 0.0690786C224.809 0.367903 231.925 3.61982 237.087 9.12346C237.087 9.12346 222.274 23.3183 220.578 24.6615C220.578 24.6615 217.297 27.9743 217.405 28.2466C217.75 29.0634 235.99 48.7129 235.981 48.722L235.583 49.0941L235.41 49.2575C223.779 59.477 205.783 58.9052 195.257 47.533C190.183 42.0125 187.498 34.7058 187.788 27.2094C188.079 19.713 191.321 12.6365 196.808 7.52609Z" fill="url(#paint4_radial_2223_20818)"/>
<path d="M196.817 7.51705C202.398 2.44334 209.748 -0.231568 217.281 0.0689356C224.814 0.369439 231.927 3.62129 237.088 9.1235C237.088 9.1235 222.727 22.9735 220.697 24.5527C220.697 24.5527 217.523 27.811 217.659 28.1377C218.067 29.1179 235.955 48.595 235.955 48.595L235.556 49.0578L235.383 49.2121C223.77 59.3591 205.783 58.7691 195.276 47.4242C190.211 41.9194 187.53 34.6307 187.818 27.1521C188.107 19.6736 191.343 12.6139 196.817 7.51705Z" fill="url(#paint5_radial_2223_20818)"/>
<path d="M196.835 7.50799C202.417 2.43819 209.765 -0.233416 217.296 0.0687656C224.827 0.370947 231.938 3.62273 237.097 9.12351C237.097 9.12351 223.19 22.6286 220.824 24.5527C220.824 24.5527 217.75 27.7565 217.905 28.1377C218.421 29.2359 235.928 48.5496 235.919 48.5496L235.52 48.9217L235.347 49.0851C223.77 59.2411 205.783 58.6239 195.303 47.3152C190.245 41.8273 187.567 34.5561 187.854 27.0947C188.141 19.6333 191.371 12.5901 196.835 7.50799Z" fill="url(#paint6_radial_2223_20818)"/>
<path d="M196.844 7.48986C202.428 2.42513 209.776 -0.241591 217.304 0.0639666C224.833 0.369524 231.941 3.62292 237.097 9.12354C237.097 9.12354 223.643 22.2746 220.942 24.4256C220.942 24.4256 217.977 27.5841 218.158 28.056C218.702 29.363 235.891 48.5042 235.882 48.5042C235.873 48.5042 235.51 48.8582 235.483 48.8763L235.311 49.0306C223.761 59.1231 205.774 58.4878 195.321 47.2427C190.259 41.7683 187.575 34.5052 187.861 27.0506C188.147 19.5959 191.378 12.56 196.844 7.48986Z" fill="url(#paint7_radial_2223_20818)"/>
<path d="M196.863 7.48079C202.447 2.42273 209.791 -0.238981 217.315 0.0682346C224.84 0.37545 231.943 3.62705 237.097 9.12355C237.097 9.12355 224.106 21.9298 221.06 24.344C221.06 24.344 218.204 27.448 218.412 27.9744C219.02 29.4447 235.855 48.4135 235.855 48.4226L235.456 48.7947L235.284 48.949C223.761 59.0415 205.774 58.3789 195.394 47.1338C190.337 41.6799 187.652 34.4388 187.927 27.0028C188.202 19.5669 191.417 12.5448 196.863 7.48079Z" fill="url(#paint8_radial_2223_20818)"/>
<path d="M196.87 7.47175C202.455 2.4176 209.798 -0.240822 217.32 0.0680705C224.843 0.376963 231.943 3.6285 237.096 9.12358C237.096 9.12358 224.558 21.5758 221.14 24.2623C221.14 24.2623 218.42 27.3209 218.62 27.8927C219.327 29.4992 235.827 48.2955 235.818 48.3046L235.419 48.6676C235.419 48.6676 235.265 48.8129 235.247 48.831C223.751 58.8872 205.773 58.1974 195.356 47.0158C192.862 44.3199 190.923 41.1584 189.649 37.7121C188.375 34.2657 187.792 30.6019 187.932 26.9299C188.073 23.2578 188.934 19.6494 190.468 16.3108C192.002 12.9722 194.177 9.96865 196.87 7.47175Z" fill="url(#paint9_radial_2223_20818)"/>
<path d="M196.889 7.45323C202.475 2.40689 209.815 -0.244938 217.333 0.0673087C224.851 0.379556 231.947 3.63097 237.096 9.12321C237.096 9.12321 225.02 21.2306 221.294 24.1803C221.294 24.1803 218.656 27.1935 218.91 27.8107C219.653 29.6259 235.791 48.2407 235.791 48.2498L235.392 48.6128L235.219 48.7671C223.742 58.7689 205.773 58.0609 195.393 46.8884C190.368 41.4599 187.703 34.2559 187.984 26.8607C188.264 19.4655 191.468 12.4846 196.889 7.45323Z" fill="url(#paint10_radial_2223_20818)"/>
<path d="M196.898 7.44457C202.487 2.40158 209.827 -0.247208 217.344 0.0667076C224.862 0.380623 231.956 3.63222 237.106 9.12363C237.106 9.12363 225.474 20.9224 221.413 24.1081C221.413 24.1081 218.892 27.0578 219.155 27.7385C219.971 29.6717 235.764 48.1504 235.755 48.1504L235.356 48.5225L235.184 48.6768C223.743 58.6604 205.774 57.9343 195.421 46.7981C192.934 44.1182 191 40.9738 189.728 37.5449C188.456 34.1159 187.873 30.4697 188.01 26.8146C188.147 23.1596 189.003 19.5675 190.528 16.2438C192.053 12.9201 194.218 9.93001 196.898 7.44457Z" fill="url(#paint11_radial_2223_20818)"/>
<path d="M196.917 7.43507C202.506 2.39874 209.843 -0.245056 217.356 0.0705156C224.869 0.386087 231.959 3.6359 237.107 9.1232C237.107 9.1232 225.937 20.5317 221.531 24.026C221.531 24.026 219.12 26.9303 219.41 27.6564C220.317 29.7802 235.729 48.0683 235.729 48.0773L235.33 48.4495C235.33 48.4495 235.176 48.5856 235.167 48.6038C223.744 58.5873 205.784 57.7977 195.449 46.6978C185.114 35.5979 185.63 17.6819 196.917 7.43507Z" fill="url(#paint12_radial_2223_20818)"/>
<path d="M196.925 7.41703C202.516 2.38575 209.852 -0.253172 217.363 0.0657734C224.874 0.384718 231.961 3.63615 237.105 9.12331C237.105 9.12331 226.39 20.1688 221.693 23.9262C221.693 23.9262 219.382 26.7761 219.699 27.5566C220.651 29.8438 235.727 47.9594 235.727 47.9685L235.329 48.3316L235.156 48.4858C223.724 58.4059 205.728 57.6344 195.466 46.5617C185.203 35.489 185.665 17.6366 196.925 7.41703Z" fill="url(#paint13_radial_2223_20818)"/>
<path d="M196.943 7.40801C202.534 2.38338 209.867 -0.250545 217.374 0.0700551C224.88 0.390655 231.963 3.64031 237.106 9.12337C237.106 9.12337 226.852 19.833 221.775 23.8628C221.775 23.8628 219.572 26.6672 219.907 27.4932C220.932 29.9346 235.646 47.8778 235.646 47.8869L235.247 48.2499L235.075 48.4042C223.724 58.288 205.728 57.4893 195.484 46.4529C185.239 35.4165 185.702 17.5913 196.943 7.40801Z" fill="url(#paint14_radial_2223_20818)"/>
<path d="M196.952 7.39897C202.544 2.37824 209.876 -0.252399 217.38 0.0698761C224.884 0.392152 231.964 3.64175 237.105 9.12341C237.105 9.12341 227.305 19.4882 221.893 23.7811C221.893 23.7811 219.798 26.5039 220.161 27.4115C221.249 29.9982 235.646 47.7962 235.646 47.8052L235.256 48.1683L235.084 48.3226C223.715 58.1337 205.728 57.3532 195.511 46.3349C185.293 35.3167 185.729 17.555 196.952 7.39897Z" fill="url(#paint15_radial_2223_20818)"/>
<path d="M196.971 7.38086C202.566 2.36955 209.896 -0.253337 217.397 0.0722508C224.898 0.397839 231.974 3.6461 237.115 9.12345C237.115 9.12345 227.768 19.107 222.047 23.6995C222.047 23.6995 220.062 26.4223 220.442 27.3299C221.567 30.1071 235.646 47.7055 235.592 47.7146L235.193 48.0776C235.14 48.1337 235.082 48.1853 235.02 48.2319C223.715 58.0521 205.728 57.2262 195.538 46.2352C185.348 35.2441 185.783 17.5097 196.971 7.38086Z" fill="url(#paint16_radial_2223_20818)"/>
<path d="M196.981 7.37183C202.583 2.36805 209.917 -0.243366 217.417 0.0958364C224.917 0.435039 231.987 3.69794 237.116 9.18703C237.116 9.18703 228.222 18.7894 222.13 23.6451C222.13 23.6451 220.253 26.2953 220.661 27.2755C221.885 30.2252 235.565 47.6601 235.556 47.6692C235.547 47.6783 235.221 47.9869 235.157 48.0322L234.994 48.1865C223.707 57.9341 205.729 57.0628 195.557 46.1263C185.385 35.1897 185.784 17.4643 196.981 7.37183Z" fill="url(#paint17_radial_2223_20818)"/>
<path d="M196.999 7.36259C202.599 2.36212 209.93 -0.247347 217.427 0.0918414C224.923 0.43103 231.989 3.69197 237.116 9.17779C237.116 9.17779 228.684 18.4625 222.248 23.5723C222.248 23.5723 220.48 26.168 220.906 27.2027C222.202 30.3157 235.538 47.5783 235.52 47.5873L235.13 47.9504L234.958 48.1047C223.698 57.816 205.729 56.9265 195.585 46.0172C185.44 35.1079 185.83 17.4188 196.999 7.36259Z" fill="url(#paint18_radial_2223_20818)"/>
<path d="M197.007 7.30808C202.607 2.31255 209.936 -0.293781 217.43 0.0453542C224.923 0.384489 231.987 3.64223 237.115 9.12328C237.115 9.12328 229.137 18.0631 222.374 23.4361C222.374 23.4361 220.705 25.9774 221.159 27.0665C222.519 30.3429 235.501 47.4421 235.492 47.4512L235.093 47.8142L234.921 47.9594C223.697 57.698 205.728 56.7813 195.602 45.9173C185.475 35.0534 185.865 17.3734 197.007 7.30808Z" fill="url(#paint19_radial_2223_20818)"/>
<path d="M197.026 7.30819C202.624 2.31596 209.95 -0.288419 217.44 0.0507025C224.929 0.389824 231.99 3.6456 237.116 9.12338C232.608 14.2396 227.72 19.0061 222.492 23.3818C222.492 23.3818 220.933 25.8777 221.413 27.0122C222.837 30.452 235.466 47.3696 235.456 47.3878L235.067 47.7417L234.894 47.896C223.689 57.5801 205.729 56.6453 195.63 45.8085C185.53 34.9718 185.893 17.2918 197.026 7.30819Z" fill="url(#paint20_radial_2223_20818)"/>
<path d="M197.034 7.30811C202.634 2.31807 209.959 -0.284864 217.448 0.054226C224.937 0.393316 231.997 3.64761 237.124 9.12331C232.68 14.2256 227.828 18.9577 222.618 23.2728C222.618 23.2728 221.177 25.7142 221.712 26.9032C223.207 30.5335 235.492 47.2606 235.474 47.2697L235.084 47.6327L234.912 47.787C223.688 57.4529 205.728 56.4999 195.647 45.6995C185.566 34.8991 185.928 17.2917 197.034 7.30811Z" fill="url(#paint21_radial_2223_20818)"/>
<path d="M197.053 7.30815C202.653 2.32578 209.973 -0.272334 217.457 0.0666795C224.941 0.405694 231.997 3.65507 237.124 9.12335C232.75 14.2293 227.932 18.937 222.728 23.1911C222.728 23.1911 221.395 25.5872 221.912 26.8215C223.471 30.6244 235.402 47.2425 235.393 47.2425C235.384 47.2425 235.076 47.542 234.994 47.6056L234.831 47.7508C223.68 57.335 205.729 56.3185 195.675 45.5907C185.621 34.8629 185.956 17.2917 197.053 7.30815Z" fill="url(#paint22_radial_2223_20818)"/>
<path d="M197.063 7.3082C202.662 2.32858 209.98 -0.267847 217.462 0.0711445C224.944 0.410136 231.998 3.6578 237.125 9.1234C232.821 14.2386 228.04 18.931 222.846 23.1367C222.846 23.1367 221.622 25.4783 222.157 26.7671C223.798 30.697 235.375 47.1155 235.357 47.1246L234.967 47.4785L234.795 47.6328C223.671 57.2261 205.73 56.2187 195.703 45.4818C185.676 34.7449 185.993 17.201 197.063 7.3082Z" fill="url(#paint23_radial_2223_20818)"/>
<path d="M197.071 7.30823C202.67 2.33135 209.986 -0.263389 217.466 0.07558C224.945 0.414549 231.998 3.6605 237.125 9.12343C232.895 14.2476 228.146 18.9194 222.954 23.0641C222.954 23.0641 221.839 25.3513 222.401 26.6945C224.106 30.7878 235.329 47.0247 235.32 47.0429L234.921 47.3969L234.749 47.5512C223.671 57.0991 205.729 56.0735 195.757 45.3729C185.784 34.6723 186.029 17.1557 197.071 7.30823Z" fill="url(#paint24_radial_2223_20818)"/>
<path d="M197.089 7.30832C202.686 2.33692 209.999 -0.254443 217.474 0.0844815C224.949 0.423406 231.998 3.66592 237.124 9.12351C232.973 14.2494 228.266 18.8976 223.09 22.9825C223.09 22.9825 222.074 25.2243 222.664 26.6129C224.477 30.8696 235.356 46.9431 235.293 46.9613L234.903 47.3153L234.731 47.4605C223.661 56.9812 205.729 55.9284 195.756 45.2641C185.783 34.5998 186.055 17.1104 197.089 7.30832Z" fill="url(#paint25_radial_2223_20818)"/>
<path d="M197.097 7.30831C202.695 2.34182 210.005 -0.24643 217.478 0.0924406C224.95 0.431311 231.996 3.67065 237.123 9.12351C233.056 14.2606 228.383 18.8866 223.207 22.9009C223.207 22.9009 222.3 25.0882 222.908 26.5313C224.721 30.9513 235.274 46.8524 235.255 46.8615C235.237 46.8706 234.956 47.1428 234.866 47.2154L234.693 47.3697C223.66 56.8632 205.728 55.7922 195.755 45.1552C185.783 34.5181 186.091 17.065 197.097 7.30831Z" fill="url(#paint26_radial_2223_20818)"/>
<path d="M197.116 7.25395C202.721 2.29706 210.033 -0.280016 217.503 0.0690042C224.974 0.418024 232.015 3.66571 237.133 9.1236C237.133 9.1236 232.8 15.2953 223.326 22.8193C223.326 22.8193 222.528 24.9612 223.163 26.4497C225.067 30.9876 235.239 46.7708 235.23 46.7799L234.831 47.1338L234.668 47.2881C223.652 56.7453 205.729 55.6471 195.757 45.0463C185.784 34.4456 186.119 17.0197 197.116 7.25395Z" fill="url(#paint27_radial_2223_20818)"/>
<path d="M197.124 7.2356C202.732 2.2859 210.043 -0.284914 217.51 0.0674417C224.978 0.419797 232.015 3.66766 237.132 9.1234C237.132 9.1234 233.261 14.9139 223.443 22.7374C223.077 23.9198 223.077 25.1854 223.443 26.3678C225.419 31.1145 235.229 46.6708 235.229 46.6889L234.839 47.0429L234.667 47.1881C223.642 56.6271 205.728 55.5108 195.819 44.9463C185.91 34.3819 186.155 16.9832 197.124 7.2356Z" fill="url(#paint28_radial_2223_20818)"/>
<path d="M197.143 7.22673C202.748 2.2793 210.057 -0.289415 217.521 0.064654C224.986 0.418723 232.019 3.66777 237.132 9.12361C237.132 9.12361 233.715 14.5692 223.534 22.6196C223.213 23.8137 223.248 25.0754 223.633 26.25C225.673 31.2236 235.174 46.6165 235.156 46.6347L234.766 46.9886L234.603 47.1338C223.642 56.5093 205.728 55.4111 195.837 44.8376C185.946 34.2641 186.191 16.938 197.143 7.22673Z" fill="url(#paint29_radial_2223_20818)"/>
<path d="M197.153 7.21736C202.759 2.27382 210.067 -0.291641 217.529 0.0640995C224.992 0.41984 232.023 3.66885 237.134 9.12331C237.134 9.12331 234.179 14.2512 223.68 22.583C223.428 23.7915 223.506 25.0458 223.907 26.2134C226.019 31.2869 235.149 46.5073 235.131 46.5254L234.741 46.8703L234.569 47.0246C223.635 56.391 205.73 55.2202 195.866 44.7284C185.848 34.0913 186.22 16.8924 197.153 7.21736Z" fill="url(#paint30_radial_2223_20818)"/>
<path d="M197.169 7.1995C202.778 2.26587 210.082 -0.291652 217.54 0.067399C224.997 0.42645 232.023 3.67394 237.132 9.1236C237.132 9.1236 234.63 13.8703 223.796 22.4653C223.609 23.6867 223.734 24.9356 224.159 26.0957C226.335 31.3325 235.11 46.3896 235.092 46.3987L234.702 46.7526L234.53 46.8979C223.651 56.2007 205.746 55.0662 195.882 44.5562C186.018 34.0463 186.254 16.8473 197.169 7.1995Z" fill="url(#paint31_radial_2223_20818)"/>
<path d="M197.179 7.1901C202.79 2.25978 210.094 -0.294747 217.551 0.065966C225.008 0.426679 232.032 3.67439 237.142 9.12328C237.142 9.12328 235.093 13.5161 223.924 22.3833C223.801 23.6151 223.969 24.8585 224.413 26.0137C226.653 31.4865 235.075 46.3348 235.057 46.3802L234.667 46.7342L234.504 46.8794C223.625 56.146 205.728 54.9389 195.91 44.5196C185.937 33.937 186.291 16.8016 197.179 7.1901Z" fill="url(#paint32_radial_2223_20818)"/>
<path d="M197.197 7.18124C202.807 2.25536 210.109 -0.295652 217.562 0.0667413C225.015 0.429134 232.035 3.67657 237.142 9.1235C237.142 9.1235 235.546 13.2077 224.041 22.3381C223.99 23.5782 224.2 24.8151 224.658 25.9685C226.97 31.5684 235.047 46.2806 235.029 46.335L234.639 46.6799L234.467 46.8251C223.615 56.0282 205.728 54.8029 195.928 44.4019C185.983 33.8556 186.318 16.7564 197.197 7.18124Z" fill="url(#paint33_radial_2223_20818)"/>
<path d="M197.206 7.16293C202.819 2.24422 210.12 -0.300547 217.57 0.0651779C225.02 0.430903 232.037 3.67854 237.142 9.12334C237.142 9.12334 236.009 12.8536 224.159 22.2563C224.179 23.5178 224.434 24.7645 224.912 25.9321C227.296 31.659 235.011 46.1987 234.993 46.2169L234.603 46.5618L234.44 46.707C223.615 55.91 205.728 54.6575 195.955 44.2928C186.028 33.7828 186.354 16.7109 197.206 7.16293Z" fill="url(#paint34_radial_2223_20818)"/>
<path d="M197.225 7.15394C202.84 2.25457 210.135 -0.273956 217.574 0.100118C225.014 0.474192 232.018 3.72172 237.115 9.15973C237.115 9.15973 236.435 12.5088 224.25 22.1747C224.356 23.4404 224.662 24.6812 225.157 25.8505C227.614 31.7498 234.985 46.1171 234.966 46.1353L234.577 46.4802C234.515 46.5236 234.458 46.5722 234.404 46.6254C223.607 55.7921 205.729 54.5033 195.983 44.1839C186.074 33.7012 186.382 16.6746 197.225 7.15394Z" fill="url(#paint35_radial_2223_20818)"/>
<path d="M197.234 7.14495C202.85 2.24456 210.145 -0.283801 217.585 0.0920011C225.025 0.467804 232.03 3.71846 237.124 9.15982C237.124 9.15982 236.906 12.164 224.377 22.0931C224.555 23.3602 224.897 24.5988 225.393 25.778C227.931 31.8135 234.948 46.0265 234.93 46.0446L234.54 46.3895C234.486 46.3895 234.422 46.4984 234.368 46.5347C223.598 55.6743 205.729 54.3764 196.001 44.0751C186.119 33.6287 186.418 16.6294 197.234 7.14495Z" fill="url(#paint36_radial_2223_20818)"/>
<path d="M197.253 7.12666C202.873 2.23285 210.169 -0.289541 217.607 0.0895807C225.046 0.468702 232.049 3.71982 237.143 9.15968C237.143 9.15968 237.379 11.8462 224.514 22.0203C224.777 23.2813 225.166 24.5127 225.674 25.6961C228.258 31.9222 234.931 45.9446 234.904 45.9628C234.876 45.981 234.641 46.2078 234.514 46.3077L234.351 46.4529C223.607 55.5743 205.729 54.231 196.029 43.9661C186.156 33.5469 186.455 16.5838 197.253 7.12666Z" fill="url(#paint37_radial_2223_20818)"/>
<path d="M197.261 7.1176C202.882 2.22392 210.18 -0.29673 217.619 0.0858142C225.059 0.468358 232.06 3.72428 237.151 9.16878C237.151 9.16878 237.84 11.465 224.64 21.9387C224.979 23.1944 225.403 24.4256 225.909 25.6235C228.565 31.9767 234.884 45.863 234.866 45.8812L234.476 46.2261L234.304 46.3713C223.597 55.411 205.728 54.0859 196.046 43.8663C186.2 33.4652 186.481 16.5385 197.261 7.1176Z" fill="url(#paint38_radial_2223_20818)"/>
<path d="M197.28 7.10866C202.902 2.21613 210.201 -0.30295 217.64 0.0812883C225.08 0.465526 232.081 3.72313 237.17 9.16891C237.17 9.16891 238.294 11.1112 224.768 21.8299C224.768 21.8299 225.266 23.3547 226.173 25.5148C228.893 32.0676 234.858 45.7542 234.84 45.7724L234.45 46.1172L234.287 46.2534C223.589 55.3203 205.729 53.9498 196.074 43.7575C186.247 33.3836 186.519 16.4932 197.28 7.10866Z" fill="url(#paint39_radial_2223_20818)"/>
<path d="M234.794 45.7177C224.205 55.2475 205.901 53.9859 196.091 43.6121C186.282 33.2382 186.545 16.3841 197.288 7.05402C202.913 2.16591 210.213 -0.348608 217.652 0.0389823C225.091 0.426573 232.09 3.68609 237.178 9.13242C237.178 9.13242 238.783 10.7298 224.903 21.739C224.876 21.7753 234.83 45.6905 234.794 45.7177Z" fill="url(#paint40_radial_2223_20818)"/>
<path d="M224.477 22.0819C220.134 25.6487 214.795 29.8509 208.584 34.5614C213.198 39.5559 218.563 43.7973 224.486 47.1316C229.572 49.8544 233.552 50.3627 235.501 48.6382C237.45 46.9138 237.215 42.9385 234.948 37.747C232.265 32.0278 228.735 26.7466 224.477 22.0819Z" fill="url(#paint41_linear_2223_20818)"/>
<path d="M224.866 21.7279L222.691 23.5431C226.674 27.9274 229.986 32.8794 232.518 38.2371C234.739 43.356 234.685 45.9245 233.969 46.5689C233.252 47.2133 230.161 47.3766 225.22 44.7537C219.747 41.6463 214.796 37.6952 210.551 33.0457L208.122 34.8609L208.693 35.4145C218.983 46.0606 230.116 52.1234 235.011 49.9179C235.156 49.8453 235.301 49.7727 235.437 49.691H235.492C235.681 49.5734 235.86 49.4398 236.027 49.2917C236.203 49.1318 236.364 48.9556 236.507 48.7653C239.707 44.5631 234.848 33.2453 225.166 22.1545L224.866 21.7279Z" fill="#84EEB1"/>
</g>
<defs>
<radialGradient id="paint0_radial_2223_20818" cx="0" cy="0" r="1" gradientUnits="userSpaceOnUse" gradientTransform="translate(223.38 3.22901) rotate(-2.29315) scale(130.518 96.6921)">
<stop stop-color="#03BA50"/>
<stop offset="0.8" stop-color="#01B64E"/>
</radialGradient>
<radialGradient id="paint1_radial_2223_20818" cx="0" cy="0" r="1" gradientUnits="userSpaceOnUse" gradientTransform="translate(223.366 3.2187) rotate(-2.29315) scale(130.246 96.4905)">
<stop stop-color="#04BC50"/>
<stop offset="0.8" stop-color="#01B34D"/>
</radialGradient>
<radialGradient id="paint2_radial_2223_20818" cx="0" cy="0" r="1" gradientUnits="userSpaceOnUse" gradientTransform="translate(223.335 3.24316) rotate(-2.29315) scale(129.974 96.2889)">
<stop stop-color="#06BD51"/>
<stop offset="0.72" stop-color="#02B24C"/>
<stop offset="0.8" stop-color="#01B04B"/>
</radialGradient>
<radialGradient id="paint3_radial_2223_20818" cx="0" cy="0" r="1" gradientUnits="userSpaceOnUse" gradientTransform="translate(223.286 3.28418) rotate(-2.29315) scale(129.702 96.0873)">
<stop stop-color="#08BF52"/>
<stop offset="0.56" stop-color="#04B44D"/>
<stop offset="0.8" stop-color="#01AD4A"/>
</radialGradient>
<radialGradient id="paint4_radial_2223_20818" cx="0" cy="0" r="1" gradientUnits="userSpaceOnUse" gradientTransform="translate(223.237 3.32354) rotate(-2.29315) scale(129.429 95.8855)">
<stop stop-color="#0AC053"/>
<stop offset="0.48" stop-color="#05B54E"/>
<stop offset="0.8" stop-color="#01AA49"/>
</radialGradient>
<radialGradient id="paint5_radial_2223_20818" cx="0" cy="0" r="1" gradientUnits="userSpaceOnUse" gradientTransform="translate(223.18 3.42169) rotate(-1.72026) scale(129.103 95.6719)">
<stop stop-color="#0BC253"/>
<stop offset="0.42" stop-color="#07B74E"/>
<stop offset="0.8" stop-color="#01A848"/>
</radialGradient>
<radialGradient id="paint6_radial_2223_20818" cx="0" cy="0" r="1" gradientUnits="userSpaceOnUse" gradientTransform="translate(223.105 3.44648) rotate(-1.72026) scale(128.831 95.4702)">
<stop stop-color="#0DC354"/>
<stop offset="0.37" stop-color="#08B84F"/>
<stop offset="0.8" stop-color="#01A546"/>
</radialGradient>
<radialGradient id="paint7_radial_2223_20818" cx="0" cy="0" r="1" gradientUnits="userSpaceOnUse" gradientTransform="translate(224.062 3.47184) rotate(-1.72026) scale(128.558 95.23)">
<stop stop-color="#0FC555"/>
<stop offset="0.33" stop-color="#0ABA50"/>
<stop offset="0.8" stop-color="#01A245"/>
</radialGradient>
<radialGradient id="paint8_radial_2223_20818" cx="0" cy="0" r="1" gradientUnits="userSpaceOnUse" gradientTransform="translate(223.967 3.51786) rotate(-1.70324) scale(129.568 95.0286)">
<stop stop-color="#11C656"/>
<stop offset="0.3" stop-color="#0CBB51"/>
<stop offset="0.8" stop-color="#019F44"/>
</radialGradient>
<radialGradient id="paint9_radial_2223_20818" cx="0" cy="0" r="1" gradientUnits="userSpaceOnUse" gradientTransform="translate(223.934 3.56445) rotate(-1.70324) scale(129.293 94.827)">
<stop stop-color="#12C856"/>
<stop offset="0.28" stop-color="#0EBD51"/>
<stop offset="0.77" stop-color="#029E44"/>
<stop offset="0.8" stop-color="#019C43"/>
</radialGradient>
<radialGradient id="paint10_radial_2223_20818" cx="0" cy="0" r="1" gradientUnits="userSpaceOnUse" gradientTransform="translate(223.902 3.62698) rotate(-1.70324) scale(129.009 94.6188)">
<stop stop-color="#14C957"/>
<stop offset="0.26" stop-color="#0FBE52"/>
<stop offset="0.72" stop-color="#049F44"/>
<stop offset="0.8" stop-color="#019941"/>
</radialGradient>
<radialGradient id="paint11_radial_2223_20818" cx="0" cy="0" r="1" gradientUnits="userSpaceOnUse" gradientTransform="translate(223.844 3.70454) rotate(-1.70324) scale(128.735 94.4172)">
<stop stop-color="#16CB58"/>
<stop offset="0.24" stop-color="#11C053"/>
<stop offset="0.66" stop-color="#06A145"/>
<stop offset="0.8" stop-color="#019640"/>
</radialGradient>
<radialGradient id="paint12_radial_2223_20818" cx="0" cy="0" r="1" gradientUnits="userSpaceOnUse" gradientTransform="translate(223.777 3.78825) rotate(-1.70324) scale(128.46 94.2157)">
<stop stop-color="#18CC59"/>
<stop offset="0.23" stop-color="#13C154"/>
<stop offset="0.62" stop-color="#07A246"/>
<stop offset="0.8" stop-color="#01933F"/>
</radialGradient>
<radialGradient id="paint13_radial_2223_20818" cx="0" cy="0" r="1" gradientUnits="userSpaceOnUse" gradientTransform="translate(223.708 3.88883) rotate(-1.70324) scale(128.176 94.0073)">
<stop stop-color="#19CD59"/>
<stop offset="0.21" stop-color="#15C254"/>
<stop offset="0.59" stop-color="#09A347"/>
<stop offset="0.8" stop-color="#01903E"/>
</radialGradient>
<radialGradient id="paint14_radial_2223_20818" cx="0" cy="0" r="1" gradientUnits="userSpaceOnUse" gradientTransform="translate(223.622 3.99663) rotate(-1.70324) scale(127.901 93.8058)">
<stop stop-color="#1BCF5A"/>
<stop offset="0.2" stop-color="#17C455"/>
<stop offset="0.56" stop-color="#0BA547"/>
<stop offset="0.8" stop-color="#018D3C"/>
</radialGradient>
<radialGradient id="paint15_radial_2223_20818" cx="0" cy="0" r="1" gradientUnits="userSpaceOnUse" gradientTransform="translate(223.527 3.60231) rotate(-1.13568) scale(127.595 93.6021)">
<stop stop-color="#1DD05B"/>
<stop offset="0.19" stop-color="#18C556"/>
<stop offset="0.54" stop-color="#0CA648"/>
<stop offset="0.8" stop-color="#018B3B"/>
</radialGradient>
<radialGradient id="paint16_radial_2223_20818" cx="0" cy="0" r="1" gradientUnits="userSpaceOnUse" gradientTransform="translate(223.423 3.68421) rotate(-1.13568) scale(127.311 93.394)">
<stop stop-color="#1ED25B"/>
<stop offset="0.18" stop-color="#1AC756"/>
<stop offset="0.51" stop-color="#0EA848"/>
<stop offset="0.8" stop-color="#01883A"/>
</radialGradient>
<radialGradient id="paint17_radial_2223_20818" cx="0" cy="0" r="1" gradientUnits="userSpaceOnUse" gradientTransform="translate(223.32 3.76395) rotate(-1.13568) scale(127.036 93.1923)">
<stop stop-color="#20D35C"/>
<stop offset="0.18" stop-color="#1BC857"/>
<stop offset="0.49" stop-color="#0FA949"/>
<stop offset="0.8" stop-color="#018539"/>
</radialGradient>
<radialGradient id="paint18_radial_2223_20818" cx="0" cy="0" r="1" gradientUnits="userSpaceOnUse" gradientTransform="translate(223.198 3.8756) rotate(-1.13568) scale(126.761 92.9908)">
<stop stop-color="#22D55D"/>
<stop offset="0.17" stop-color="#1DCA58"/>
<stop offset="0.47" stop-color="#11AB4A"/>
<stop offset="0.8" stop-color="#018237"/>
</radialGradient>
<radialGradient id="paint19_radial_2223_20818" cx="0" cy="0" r="1" gradientUnits="userSpaceOnUse" gradientTransform="translate(223.057 3.97865) rotate(-1.13568) scale(126.477 92.7826)">
<stop stop-color="#24D65E"/>
<stop offset="0.16" stop-color="#1FCB59"/>
<stop offset="0.45" stop-color="#13AC4B"/>
<stop offset="0.8" stop-color="#017F36"/>
</radialGradient>
<radialGradient id="paint20_radial_2223_20818" cx="0" cy="0" r="1" gradientUnits="userSpaceOnUse" gradientTransform="translate(222.908 4.10472) rotate(-1.13568) scale(126.203 92.581)">
<stop stop-color="#25D85E"/>
<stop offset="0.15" stop-color="#20CD59"/>
<stop offset="0.43" stop-color="#14AE4B"/>
<stop offset="0.79" stop-color="#017D36"/>
<stop offset="0.8" stop-color="#007C35"/>
</radialGradient>
<radialGradient id="paint21_radial_2223_20818" cx="0" cy="0" r="1" gradientUnits="userSpaceOnUse" gradientTransform="translate(225.652 4.24678) rotate(-1.13568) scale(125.928 92.3547)">
<stop stop-color="#27D95F"/>
<stop offset="0.15" stop-color="#22CE5A"/>
<stop offset="0.42" stop-color="#16AF4C"/>
<stop offset="0.77" stop-color="#027E36"/>
<stop offset="0.8" stop-color="#007934"/>
</radialGradient>
<radialGradient id="paint22_radial_2223_20818" cx="0" cy="0" r="1" gradientUnits="userSpaceOnUse" gradientTransform="translate(224.714 4.39349) rotate(-1.12455) scale(126.888 92.1467)">
<stop stop-color="#29DB60"/>
<stop offset="0.14" stop-color="#24D05B"/>
<stop offset="0.4" stop-color="#18B14D"/>
<stop offset="0.74" stop-color="#048037"/>
<stop offset="0.8" stop-color="#007632"/>
</radialGradient>
<radialGradient id="paint23_radial_2223_20818" cx="0" cy="0" r="1" gradientUnits="userSpaceOnUse" gradientTransform="translate(224.604 4.55654) rotate(-1.12455) scale(126.61 91.9451)">
<stop stop-color="#2BDC61"/>
<stop offset="0.14" stop-color="#26D15C"/>
<stop offset="0.39" stop-color="#1AB24E"/>
<stop offset="0.71" stop-color="#068138"/>
<stop offset="0.8" stop-color="#007331"/>
</radialGradient>
<radialGradient id="paint24_radial_2223_20818" cx="0" cy="0" r="1" gradientUnits="userSpaceOnUse" gradientTransform="translate(224.493 4.73555) rotate(-1.12455) scale(126.323 91.7369)">
<stop stop-color="#2CDE61"/>
<stop offset="0.13" stop-color="#27D35C"/>
<stop offset="0.37" stop-color="#1BB44E"/>
<stop offset="0.69" stop-color="#088339"/>
<stop offset="0.8" stop-color="#007030"/>
</radialGradient>
<radialGradient id="paint25_radial_2223_20818" cx="0" cy="0" r="1" gradientUnits="userSpaceOnUse" gradientTransform="translate(224.372 3.82695) rotate(-0.562327) scale(126.028 91.5365)">
<stop stop-color="#2EDF62"/>
<stop offset="0.13" stop-color="#29D45D"/>
<stop offset="0.37" stop-color="#1DB54F"/>
<stop offset="0.67" stop-color="#098439"/>
<stop offset="0.8" stop-color="#006E2F"/>
</radialGradient>
<radialGradient id="paint26_radial_2223_20818" cx="0" cy="0" r="1" gradientUnits="userSpaceOnUse" gradientTransform="translate(224.233 3.96898) rotate(-0.562328) scale(125.75 91.335)">
<stop stop-color="#30E163"/>
<stop offset="0.13" stop-color="#2BD65E"/>
<stop offset="0.35" stop-color="#1FB750"/>
<stop offset="0.65" stop-color="#0B8639"/>
<stop offset="0.8" stop-color="#006B2D"/>
</radialGradient>
<radialGradient id="paint27_radial_2223_20818" cx="0" cy="0" r="1" gradientUnits="userSpaceOnUse" gradientTransform="translate(224.095 4.127) rotate(-0.562328) scale(125.464 91.1268)">
<stop stop-color="#31E263"/>
<stop offset="0.12" stop-color="#2CD75E"/>
<stop offset="0.34" stop-color="#20B850"/>
<stop offset="0.63" stop-color="#0D873A"/>
<stop offset="0.8" stop-color="#00682C"/>
</radialGradient>
<radialGradient id="paint28_radial_2223_20818" cx="0" cy="0" r="1" gradientUnits="userSpaceOnUse" gradientTransform="translate(223.937 4.29162) rotate(-0.562328) scale(125.186 90.9253)">
<stop stop-color="#33E364"/>
<stop offset="0.12" stop-color="#2ED85F"/>
<stop offset="0.34" stop-color="#22B951"/>
<stop offset="0.62" stop-color="#0E883B"/>
<stop offset="0.8" stop-color="#00652B"/>
</radialGradient>
<radialGradient id="paint29_radial_2223_20818" cx="0" cy="0" r="1" gradientUnits="userSpaceOnUse" gradientTransform="translate(223.771 4.47026) rotate(-0.562328) scale(124.9 90.717)">
<stop stop-color="#35E565"/>
<stop offset="0.12" stop-color="#30DA60"/>
<stop offset="0.33" stop-color="#24BB52"/>
<stop offset="0.6" stop-color="#108A3C"/>
<stop offset="0.8" stop-color="#00622A"/>
</radialGradient>
<radialGradient id="paint30_radial_2223_20818" cx="0" cy="0" r="1" gradientUnits="userSpaceOnUse" gradientTransform="translate(223.606 4.6552) rotate(-0.562328) scale(124.622 90.5155)">
<stop stop-color="#37E666"/>
<stop offset="0.11" stop-color="#32DB61"/>
<stop offset="0.32" stop-color="#26BC53"/>
<stop offset="0.59" stop-color="#128B3C"/>
<stop offset="0.8" stop-color="#005F28"/>
</radialGradient>
<radialGradient id="paint31_radial_2223_20818" cx="0" cy="0" r="1" gradientUnits="userSpaceOnUse" gradientTransform="translate(223.419 4.8568) rotate(-0.562328) scale(124.335 90.3073)">
<stop stop-color="#38E866"/>
<stop offset="0.11" stop-color="#33DD61"/>
<stop offset="0.31" stop-color="#27BE53"/>
<stop offset="0.57" stop-color="#148D3D"/>
<stop offset="0.8" stop-color="#005C27"/>
</radialGradient>
<radialGradient id="paint32_radial_2223_20818" cx="0" cy="0" r="1" gradientUnits="userSpaceOnUse" gradientTransform="translate(223.226 5.07131) rotate(-0.562328) scale(124.058 90.1058)">
<stop stop-color="#3AE967"/>
<stop offset="0.11" stop-color="#35DE62"/>
<stop offset="0.3" stop-color="#29BF54"/>
<stop offset="0.56" stop-color="#158E3E"/>
<stop offset="0.8" stop-color="#005926"/>
</radialGradient>
<radialGradient id="paint33_radial_2223_20818" cx="0" cy="0" r="1" gradientUnits="userSpaceOnUse" gradientTransform="translate(223.031 5.29326) rotate(-0.562328) scale(123.781 89.9043)">
<stop stop-color="#3CEB68"/>
<stop offset="0.11" stop-color="#37E063"/>
<stop offset="0.29" stop-color="#2BC155"/>
<stop offset="0.54" stop-color="#17903F"/>
<stop offset="0.8" stop-color="#005625"/>
</radialGradient>
<radialGradient id="paint34_radial_2223_20818" cx="0" cy="0" r="1" gradientUnits="userSpaceOnUse" gradientTransform="translate(222.809 5.53088) rotate(-0.562327) scale(123.494 89.696)">
<stop stop-color="#3EEC69"/>
<stop offset="0.1" stop-color="#39E164"/>
<stop offset="0.29" stop-color="#2DC256"/>
<stop offset="0.53" stop-color="#19913F"/>
<stop offset="0.8" stop-color="#005323"/>
</radialGradient>
<radialGradient id="paint35_radial_2223_20818" cx="0" cy="0" r="1" gradientUnits="userSpaceOnUse" gradientTransform="translate(222.588 4.11875) scale(123.21 89.487)">
<stop stop-color="#3FEE69"/>
<stop offset="0.1" stop-color="#3AE364"/>
<stop offset="0.28" stop-color="#2EC456"/>
<stop offset="0.52" stop-color="#1A9340"/>
<stop offset="0.8" stop-color="#005122"/>
</radialGradient>
<radialGradient id="paint36_radial_2223_20818" cx="0" cy="0" r="1" gradientUnits="userSpaceOnUse" gradientTransform="translate(225.497 4.31742) scale(124.129 89.2789)">
<stop stop-color="#41EF6A"/>
<stop offset="0.1" stop-color="#3CE465"/>
<stop offset="0.28" stop-color="#30C557"/>
<stop offset="0.51" stop-color="#1C9441"/>
<stop offset="0.79" stop-color="#015022"/>
<stop offset="0.8" stop-color="#004E21"/>
</radialGradient>
<radialGradient id="paint37_radial_2223_20818" cx="0" cy="0" r="1" gradientUnits="userSpaceOnUse" gradientTransform="translate(225.318 4.53165) scale(123.858 89.0841)">
<stop stop-color="#43F16B"/>
<stop offset="0.1" stop-color="#3EE666"/>
<stop offset="0.27" stop-color="#32C758"/>
<stop offset="0.5" stop-color="#1E9642"/>
<stop offset="0.77" stop-color="#035223"/>
<stop offset="0.8" stop-color="#004B20"/>
</radialGradient>
<radialGradient id="paint38_radial_2223_20818" cx="0" cy="0" r="1" gradientUnits="userSpaceOnUse" gradientTransform="translate(225.147 4.75948) scale(123.578 88.8826)">
<stop stop-color="#45F26C"/>
<stop offset="0.1" stop-color="#40E767"/>
<stop offset="0.27" stop-color="#34C859"/>
<stop offset="0.49" stop-color="#209742"/>
<stop offset="0.76" stop-color="#055323"/>
<stop offset="0.8" stop-color="#00481E"/>
</radialGradient>
<radialGradient id="paint39_radial_2223_20818" cx="0" cy="0" r="1" gradientUnits="userSpaceOnUse" gradientTransform="translate(224.968 5.00321) scale(123.289 88.6744)">
<stop stop-color="#46F46C"/>
<stop offset="0.09" stop-color="#41E967"/>
<stop offset="0.26" stop-color="#35CA59"/>
<stop offset="0.48" stop-color="#229943"/>
<stop offset="0.74" stop-color="#065524"/>
<stop offset="0.8" stop-color="#00451D"/>
</radialGradient>
<radialGradient id="paint40_radial_2223_20818" cx="0" cy="0" r="1" gradientUnits="userSpaceOnUse" gradientTransform="translate(224.796 5.26006) scale(122.999 88.4662)">
<stop stop-color="#48F56D"/>
<stop offset="0.09" stop-color="#43EA68"/>
<stop offset="0.25" stop-color="#37CB5A"/>
<stop offset="0.47" stop-color="#239A44"/>
<stop offset="0.73" stop-color="#085625"/>
<stop offset="0.8" stop-color="#00421C"/>
</radialGradient>
<linearGradient id="paint41_linear_2223_20818" x1="226.798" y1="68.8686" x2="216.168" y2="-7.27573" gradientUnits="userSpaceOnUse">
<stop offset="0.1" stop-color="#FF8475"/>
<stop offset="0.37" stop-color="#E84E43"/>
<stop offset="0.6" stop-color="#D6261F"/>
<stop offset="0.79" stop-color="#CC0E08"/>
<stop offset="0.9" stop-color="#C80500"/>
</linearGradient>
<clipPath id="clip0_2223_20818">
<rect width="56.9369" height="57" fill="black" transform="translate(187.596)"/>
</clipPath>
</defs>
</svg>
